<svg xmlns="http://www.w3.org/2000/svg" viewBox="0 0 229.03 58.18"><defs><style>.cls-1{isolation:isolate;}.cls-2{fill:#fff;}</style></defs><title>アセット 1</title><g id="レイヤー_2" data-name="レイヤー 2"><g id="レイヤー_1-2" data-name="レイヤー 1"><g id="レイヤー_2-2" data-name="レイヤー 2"><g id="レイヤー_2-2-2" data-name="レイヤー 2-2"><g id="レイヤー_1-2-2" data-name="レイヤー 1-2"><g class="cls-1"><path class="cls-2" d="M17.93,2.1c1,0,2-.13,3.08-.27a21.11,21.11,0,0,0,3-.61,16.87,16.87,0,0,1,3.81-.5,15.48,15.48,0,0,1,3.87.44,3.87,3.87,0,0,1,1.49.67A5.24,5.24,0,0,1,34.34,3a4.87,4.87,0,0,1,.55,1.15,3.87,3.87,0,0,1,.21,1.26c0,.47-.08.94-.12,1.43s-.1,1-.18,1.44c1.22-.16,2.45-.3,3.7-.44s2.48-.26,3.69-.38a6.25,6.25,0,0,1,2.25.17,6,6,0,0,1,2,.94,6.55,6.55,0,0,1,1.67,1.73,6.21,6.21,0,0,1,.9,2.2,6.23,6.23,0,0,1,0,2.11,4.82,4.82,0,0,1-.76,1.93,5.62,5.62,0,0,1-1.87,1.82,5.81,5.81,0,0,1-2.52.82q-3,.52-6.1,1t-6.09.88a25.34,25.34,0,0,1,2.26,1.79,20.9,20.9,0,0,1,2,2.08,3.5,3.5,0,0,1,.85,1.67,3.34,3.34,0,0,1-.15,1.9L35.8,31a25,25,0,0,1,5.63,3.31A24,24,0,0,1,45.94,39a20.85,20.85,0,0,1,2.63,4.78A21.72,21.72,0,0,1,49.92,49a8.57,8.57,0,0,1-.58,4.19,8.18,8.18,0,0,1-2.52,3.37,3.1,3.1,0,0,1-3.64,0c-.66-.51-1.31-1.06-1.93-1.64a25.06,25.06,0,0,1-1.76-1.82c-3,1-6.05,1.82-9.14,2.52s-6.21,1.27-9.37,1.7a9.64,9.64,0,0,1-2.52,0,12.08,12.08,0,0,1-2.52-.56,3.32,3.32,0,0,1-1.64-1.23,3.54,3.54,0,0,1-.71-1.93c0-.86-.05-1.72-.05-2.58s0-1.72.05-2.58a25.11,25.11,0,0,1-3.13,4,28,28,0,0,1-3.84,3.31,2.71,2.71,0,0,1-1.7.58,3.22,3.22,0,0,1-1.76-.52A6.09,6.09,0,0,1,2.29,55,3.74,3.74,0,0,1,1.64,54a6.14,6.14,0,0,0-.7-1.17A6,6,0,0,0,0,51.84a63.23,63.23,0,0,0,5.8-14.5,60.68,60.68,0,0,0,2-15.5,4,4,0,0,1-1.43-1.26,3.78,3.78,0,0,1-.68-1.72,11.22,11.22,0,0,1-.14-1.41,11.06,11.06,0,0,1,0-1.41,19.23,19.23,0,0,0,.11-2c0-.68,0-1.36-.06-2a14.09,14.09,0,0,0,2.82.2,17.8,17.8,0,0,0,2.81-.26c1.17-.23,2.34-.44,3.52-.61s2.34-.35,3.51-.5a23.62,23.62,0,0,0,.18-4.37A33.7,33.7,0,0,0,17.93,2.1Zm-.82,20.45a3.92,3.92,0,0,1,1.82,1.64,4,4,0,0,1,.52,2.4,66,66,0,0,1-1.05,7.85,73,73,0,0,1-1.94,7.74q2.47-4.93,4.6-10T25,21.84c-1.29.24-2.59.41-3.9.53S18.44,22.55,17.11,22.55ZM28.65,43q1.29-.18,2.58-.39c.86-.13,1.72-.3,2.58-.49-.2-.82-.38-1.64-.56-2.46s-.34-1.66-.5-2.52c-.62,1-1.28,2-2,3S29.39,42.06,28.65,43Z"/><path class="cls-2" d="M64.1,10,68,9.3V4.73a9.6,9.6,0,0,0-.21-1.34,4.09,4.09,0,0,0-.5-1.23c.63,0,1.24-.09,1.85-.15s1.2-.13,1.79-.21c.74-.11,1.47-.2,2.19-.26s1.46-.11,2.2-.15a6.47,6.47,0,0,1,1.85.27,8,8,0,0,1,1.73.73,2,2,0,0,1,.7.76,2.32,2.32,0,0,1,.23,1L79.8,7.08l2.7-.47a3,3,0,0,0,.06-1,7.4,7.4,0,0,0-.18-1,18.44,18.44,0,0,0,2-.35,18.91,18.91,0,0,0,1.9-.59c1.8-.74,3.62-1.42,5.48-2S95.45.54,97.32.11A5.06,5.06,0,0,1,99.05.05a4.75,4.75,0,0,1,1.61.52,20.23,20.23,0,0,1,3,1.91,22.79,22.79,0,0,1,2.64,2.37,4.29,4.29,0,0,1,1,1.58,5.18,5.18,0,0,1,.33,1.82,29.18,29.18,0,0,1-1,6.53,28.58,28.58,0,0,1-2.43,6.13,15.72,15.72,0,0,1,1.93,2.81,18.66,18.66,0,0,1,1.35,3.16,6.55,6.55,0,0,1,.29,1.91,8.88,8.88,0,0,1-.23,2,43,43,0,0,1-1.26,5.18,50.17,50.17,0,0,1-1.85,5c.55.86,1.09,1.72,1.61,2.58s1,1.74,1.56,2.64A9.34,9.34,0,0,1,108.72,49a8.88,8.88,0,0,1,.09,3.08,3.53,3.53,0,0,1-1,1.93,3.34,3.34,0,0,1-2,1,4.72,4.72,0,0,1-2.61-.41,4.4,4.4,0,0,1-2-1.76L99.55,50a18.25,18.25,0,0,1-2.11,2.61,16.92,16.92,0,0,1-2.52,2.13,2.71,2.71,0,0,1-1.61.56,2.68,2.68,0,0,1-1.61-.44,5.18,5.18,0,0,1-1.11,1.55,5,5,0,0,1-1.53,1,2.83,2.83,0,0,1-1.67.18,3,3,0,0,1-1.49-.83A8.47,8.47,0,0,1,84.11,54a8.34,8.34,0,0,1-.56-3.28l.12-5.92a8.84,8.84,0,0,1-1.7.44,10.37,10.37,0,0,1-1.76.15l.12,4.34a11.12,11.12,0,0,1-.44,3.16,11.65,11.65,0,0,1-1.26,2.87,6.36,6.36,0,0,1-.88,1,5.26,5.26,0,0,1-1,.73,5.33,5.33,0,0,1-2.84.7,5.17,5.17,0,0,1-2.73-.88,7.58,7.58,0,0,1-3.46-5.56l0-4.87-2.82.47A2.86,2.86,0,0,1,63.11,47a2.5,2.5,0,0,1-1.18-1.32,8.18,8.18,0,0,1-.55-2.08,6.16,6.16,0,0,1,.08-2.14c.08-.5.15-1,.21-1.49s.11-1,.15-1.44a4.83,4.83,0,0,0,1.08.12A11.17,11.17,0,0,0,64,38.6l3.64-.53,0-.76-2.22.29a4.16,4.16,0,0,1-1.32,0,5.53,5.53,0,0,1-1.32-.32,1.92,1.92,0,0,1-.79-.55,1.68,1.68,0,0,1-.38-.85,10.13,10.13,0,0,1-.24-1.53c0-.5-.05-1-.05-1.52a12,12,0,0,0-.09-1.49,11.43,11.43,0,0,0-.27-1.44,10.79,10.79,0,0,0,1.15-.06l1.14-.12,2.28-.41a9,9,0,0,1-1.58-2,7.13,7.13,0,0,1-.88-2.31,1.38,1.38,0,0,1-1-.06,1.08,1.08,0,0,1-.62-.76,7.57,7.57,0,0,1-.29-1.59,6.91,6.91,0,0,1,.06-1.58,9.55,9.55,0,0,0,.12-1.49q0-.73-.06-1.5a3.48,3.48,0,0,0,1.08.3,3.32,3.32,0,0,0,1.09-.06l4.57-.82V16.22l-2.82.47a3.22,3.22,0,0,1-1,.06,2.87,2.87,0,0,1-1-.3,1.83,1.83,0,0,1-.79-.55,2.23,2.23,0,0,1-.44-.85,4.86,4.86,0,0,1-.2-1.2,8.91,8.91,0,0,1,0-1.26A13.46,13.46,0,0,0,62,11.18a11.06,11.06,0,0,0,0-1.41,3,3,0,0,0,1.06.27A6.14,6.14,0,0,0,64.1,10Zm7.27,14.35a5.67,5.67,0,0,1,.88,1.15,7.93,7.93,0,0,1,.58,1.26l2-3.29ZM79.8,14.23v1.29l4-.71V13.58Zm.12,22.26L83.61,36l.12-1.34a5.55,5.55,0,0,1-1.14.58,4.63,4.63,0,0,1-1.26.3l-1.41.23Zm2.4-9.26a3.3,3.3,0,0,1,.77,0,2.53,2.53,0,0,1,.7.24V24.89Zm10-6.27a9.61,9.61,0,0,1,1.79-.52A14.18,14.18,0,0,1,96,20.2a12.91,12.91,0,0,1-2.49-2.93,13.71,13.71,0,0,1-1.56-3.45,16.68,16.68,0,0,0,2,0,11.54,11.54,0,0,0,2-.3v-2a15.34,15.34,0,0,0-3,.65,17.34,17.34,0,0,0-2.81,1.17,3,3,0,0,1,1.58,1,2.77,2.77,0,0,1,.64,1.79Zm.12,24.2c.39-.5.75-1,1.08-1.52s.68-1,1-1.58l-2.11-3.34ZM96.8,30.34l1.75,2.23.65-2.7Z"/><path class="cls-2" d="M137.05,2.16c1-.12,2-.26,3-.41s2-.34,3-.53A14.85,14.85,0,0,1,145.9.9a19.19,19.19,0,0,1,2.75.14,11.36,11.36,0,0,1,1.73.38,6.9,6.9,0,0,1,1.61.74,2.34,2.34,0,0,1,.91,1,2.74,2.74,0,0,1,.32,1.26l-.06,3.69,3.4-.46a14.19,14.19,0,0,1,2.61-.12,20.63,20.63,0,0,1,2.61.29,13.15,13.15,0,0,1,2.46.7,18.51,18.51,0,0,1,2.28,1.12,3,3,0,0,1,.71.7,2.66,2.66,0,0,1,.41.94,5.61,5.61,0,0,1-.09,1.87,4.21,4.21,0,0,1-.79,1.7,7.09,7.09,0,0,1-1.67,1.61,6.39,6.39,0,0,1-2.14,1q-2.52.64-5.07,1.08c-1.7.3-3.41.54-5.13.74l-.05,1.11,1.64-.29a6.1,6.1,0,0,1,2.08-.12,6.71,6.71,0,0,1,2,.53A13.38,13.38,0,0,1,163,23.75a13,13,0,0,1,2.81,4.89,7.2,7.2,0,0,1,.35,2.87,7.36,7.36,0,0,1-.76,2.75,40,40,0,0,1-3,4.63,41.52,41.52,0,0,1-3.6,4.22l3.05,1.82a25.86,25.86,0,0,1,4.86,4.39,5.11,5.11,0,0,1,.88,1.53,6.42,6.42,0,0,1,.35,1.7,4.51,4.51,0,0,1-.17,1.23,6.06,6.06,0,0,1-.47,1.11,4.73,4.73,0,0,1-.85.94,8.15,8.15,0,0,1-1,.7,11.69,11.69,0,0,1-2,.62,8.23,8.23,0,0,1-2.05.14,15.08,15.08,0,0,1-3.93-.64A15.25,15.25,0,0,1,153.75,55l-5.86-3.69a47.82,47.82,0,0,1-6.8,3,41.28,41.28,0,0,1-7.2,1.82,21.13,21.13,0,0,1-6.74-.12,4,4,0,0,1-1.41-.61,3.64,3.64,0,0,1-1-1.09,6.78,6.78,0,0,1-.65-1.43,5.28,5.28,0,0,1-.23-1.55,9.34,9.34,0,0,1,0-1.67A14.91,14.91,0,0,1,124.1,48a5,5,0,0,0,0-3,14.83,14.83,0,0,0,1.88.12c.62,0,1.23,0,1.81-.06a33.25,33.25,0,0,0,4.37-.76,43.17,43.17,0,0,0,4.19-1.29c-1.29-1-2.55-2-3.78-3.08l-3.72-3.13a8.32,8.32,0,0,1-.82-1.21,7.07,7.07,0,0,1-.59-1.31,3.22,3.22,0,0,1-1-.18,2.34,2.34,0,0,1-.94-.59,6.26,6.26,0,0,1-.53-.46l-.47-.53a3.93,3.93,0,0,1-.52-1.14,3.34,3.34,0,0,1-.12-1.26,16.84,16.84,0,0,0,.2-2.9,26.92,26.92,0,0,0-.2-2.85q1.11.06,2.25,0c.77,0,1.54-.06,2.32-.14l9.08-1.64V21.32l-6.62.88a15.9,15.9,0,0,1-5.39,0,3.72,3.72,0,0,1-1.32-.5,3.5,3.5,0,0,1-1-1,4.41,4.41,0,0,1-.88-1.82,4.77,4.77,0,0,1-.06-2,18.8,18.8,0,0,0,.29-2.49q.06-1.26,0-2.49a18.66,18.66,0,0,0,2.11.12,12.52,12.52,0,0,0,2.11-.18l10.84-1.58v-5a10.31,10.31,0,0,0-.12-1.55A10,10,0,0,0,137.05,2.16Zm5,30.93L147,36c.55-.54,1.09-1.11,1.61-1.7s1-1.19,1.5-1.81c-1.37,0-2.72.11-4.05.2S143.42,32.94,142.09,33.09Z"/><path class="cls-2" d="M185.86,4.32A10,10,0,0,0,188,3.86,11.89,11.89,0,0,0,190,3a5.84,5.84,0,0,1,1.73-.56,6,6,0,0,1,1.79,0,5.15,5.15,0,0,1,1,.32,5.57,5.57,0,0,1,.85.5,3.29,3.29,0,0,1,1,1.32,3.08,3.08,0,0,1,.2,1.61l-.17,7.09a4.47,4.47,0,0,1,.61.26,1.36,1.36,0,0,1,.44.38,10.18,10.18,0,0,0-.14-1.64,9.48,9.48,0,0,0-.44-1.58,7.65,7.65,0,0,1,1.49.27,7.9,7.9,0,0,1,1.44.55,6.16,6.16,0,0,1-.5-1.61,4.27,4.27,0,0,1,0-1.67,8,8,0,0,0,0-1.2,3.6,3.6,0,0,0-.27-1.2,22.77,22.77,0,0,0,5.4-.76,27.08,27.08,0,0,0,5.09-1.94,10.27,10.27,0,0,0,2-1.29,10.87,10.87,0,0,0,1.7-1.69,31.5,31.5,0,0,1,3.78,1.64c1.23.62,2.44,1.31,3.61,2.05A9.74,9.74,0,0,1,222.77,6a2.05,2.05,0,0,1,.3,1.44,1.84,1.84,0,0,1-.77,1.26,15.51,15.51,0,0,1,3.17,1.43,14.38,14.38,0,0,1,2.75,2.14,1.74,1.74,0,0,1,.53,1.53,1.75,1.75,0,0,1-.94,1.34q-1.17.71-2.31,1.53a22,22,0,0,0-2.2,1.81,6.42,6.42,0,0,1,4.28,2.17,1.85,1.85,0,0,1,.47.79,2.78,2.78,0,0,1,.06.91,3.21,3.21,0,0,1-.44,1.35,3.74,3.74,0,0,1-1,1.11,6.47,6.47,0,0,1-1.82.91,8.25,8.25,0,0,1-2,.38,59.91,59.91,0,0,0-6.15.67,50.35,50.35,0,0,0-6,1.38l.18.88a45.7,45.7,0,0,1,4.83-1.14c1.62-.29,3.26-.52,4.9-.68a10.3,10.3,0,0,1,4.33.59,9.93,9.93,0,0,1,3.69,2.34,1.82,1.82,0,0,1,.44.94,1.43,1.43,0,0,1-.2,1,4,4,0,0,1-1.14,1.37,4.37,4.37,0,0,1-1.62.79,42.6,42.6,0,0,1-4.42.85c-1.5.22-3,.37-4.48.44a35.09,35.09,0,0,0-3.84.33c-1.27.17-2.53.4-3.78.67L208.89,38c.78-.11,1.55-.26,2.31-.43l2.32-.56c.85-.2,1.7-.38,2.54-.56s1.69-.32,2.55-.44a6.73,6.73,0,0,1,1.85,0,7.82,7.82,0,0,1,1.73.5A13,13,0,0,1,224.62,38a10.71,10.71,0,0,1,2,2,4,4,0,0,1,.91,1.84,4.11,4.11,0,0,1-.09,2,4.55,4.55,0,0,1-.53,1.28,4,4,0,0,1-.88,1.06c-.58.55-1.17,1.07-1.75,1.58a16.46,16.46,0,0,1-1.88,1.41l2.23.94a6.33,6.33,0,0,1,1.9,1.14A5.8,5.8,0,0,1,227.93,53a2.21,2.21,0,0,1,.38,1.11,3.37,3.37,0,0,1-.15,1.17,4.12,4.12,0,0,1-.61,1.06,4.48,4.48,0,0,1-.91.82,5.54,5.54,0,0,1-1.35.52,5.9,5.9,0,0,1-1.46.18,11.85,11.85,0,0,1-2.7-.32,17,17,0,0,1-2.58-.85q-1.23-.52-2.37-1.14t-2.25-1.32q-1.41.64-2.85,1.23c-1,.39-1.92.74-2.9,1a23.26,23.26,0,0,1-3.57.88,16.8,16.8,0,0,1-3.69.18,2.63,2.63,0,0,1-2.35-1.47,7.92,7.92,0,0,1-.7-1.87,7,7,0,0,1-.17-2,3.35,3.35,0,0,1-1.41,0,3.55,3.55,0,0,1-1.29-.56,12.61,12.61,0,0,1-.94,2.9,12.79,12.79,0,0,1-1.58,2.55,2.83,2.83,0,0,1-1.61,1,2.65,2.65,0,0,1-1.85-.26,14,14,0,0,1-3.37-2.64,12.63,12.63,0,0,1-2.37-3.57q-.76-1.81-1.35-3.69t-1-3.81a19.42,19.42,0,0,0,2,.82,21.42,21.42,0,0,0,2.08.59.9.9,0,0,0,.85-.21,1.07,1.07,0,0,0,.38-.85l-.06-1.93a2,2,0,0,1-1.26.17,1.64,1.64,0,0,1-1.08-.64,5,5,0,0,1-.85-1.29,5.46,5.46,0,0,1-.44-1.46,17.11,17.11,0,0,1-.21-2.26,12.21,12.21,0,0,1,.15-2.26c.08-.66.13-1.32.15-2s0-1.33,0-2a13.35,13.35,0,0,0,1.87-.26,14.89,14.89,0,0,0,1.88-.56l.06-2.64a3.31,3.31,0,0,1-1.53-.35,3.11,3.11,0,0,1-1.17-1,9.81,9.81,0,0,1-.79-1.59,7,7,0,0,1-.44-1.7,9.27,9.27,0,0,1-.15-1.29c0-.42-.05-.87-.08-1.34a13.68,13.68,0,0,0-.12-1.79,15.3,15.3,0,0,0-.35-1.79,11.59,11.59,0,0,0,2.43-.14,13.54,13.54,0,0,0,2.31-.62l.06-7a9.31,9.31,0,0,0-.15-2.23A11.88,11.88,0,0,0,185.86,4.32Zm9.61,34.05-.18,4.74a27.46,27.46,0,0,0,2-2.58,19.27,19.27,0,0,0,1.55-2.75,3.16,3.16,0,0,1-.73-.73,2.37,2.37,0,0,1-.44-1,10.84,10.84,0,0,1-1,1.2C196.24,37.65,195.86,38,195.47,38.37Zm.47-13.77-.06,1.46a13.67,13.67,0,0,0,1.41-.55,11.67,11.67,0,0,0,1.34-.74l-.35-1.4a7.14,7.14,0,0,1-1.11.7A11.38,11.38,0,0,1,195.94,24.6ZM198.81,23l1.87-.06-.88-1.29Zm.53,8.2,2-.35.29-1.53a2.74,2.74,0,0,1-1-.29,4.12,4.12,0,0,1-.87-.58c0,.46-.1.92-.18,1.37S199.41,30.69,199.34,31.16Zm3.86,16.11-2.11,2.58a17.32,17.32,0,0,0,2.23-.38c.74-.18,1.47-.38,2.17-.62Zm-.58-34.51A14.9,14.9,0,0,1,205.05,15a13.15,13.15,0,0,1,1.84,2.78,4.73,4.73,0,0,1,.44,1.58,5.31,5.31,0,0,1-.08,1.64l2.81-.7a18.53,18.53,0,0,1-2.87-3.54,16.76,16.76,0,0,1-1.88-4.14c-.47,0-.93,0-1.37.06S203.05,12.76,202.62,12.76Zm9.55,30.7,2,1.35,2.4-1.76a20.42,20.42,0,0,0-2.17.12C213.65,43.25,212.91,43.35,212.17,43.46ZM214,11.18a4.85,4.85,0,0,1,1.06,1,6.45,6.45,0,0,1,.76,1.32A20.92,20.92,0,0,0,218,11.74a18,18,0,0,0,1.82-2.08c-.94.31-1.89.59-2.85.85S215,11,214,11.18Z"/></g></g></g></g></g></g></svg>