<svg xmlns="http://www.w3.org/2000/svg" viewBox="0 0 284.56 57.74"><defs><style>.cls-1{fill:#fff;}</style></defs><title>アセット 1</title><g id="レイヤー_2" data-name="レイヤー 2"><g id="レイヤー_1-2" data-name="レイヤー 1"><path class="cls-1" d="M14.18,1.88a11.86,11.86,0,0,0,2.23,0,11.1,11.1,0,0,0,2.16-.38,14.26,14.26,0,0,1,3.11-.47,13.47,13.47,0,0,1,3.11.24,3.26,3.26,0,0,1,2.08,1.26,3.44,3.44,0,0,1,.73,2.31v10.9a23.16,23.16,0,0,1,2.34-.23q1.17-.06,2.4-.06a8.49,8.49,0,0,1,2.32.44,7.26,7.26,0,0,1,2.14,1.14,5.84,5.84,0,0,1,1.14,1.08,5.25,5.25,0,0,1,.79,1.32,3.77,3.77,0,0,1,.41,1.67,4.28,4.28,0,0,1-.35,1.67A6.49,6.49,0,0,1,37,25.23a6.57,6.57,0,0,1-2.69,1.44c-1.1.27-2.2.52-3.31.73s-2.24.38-3.37.5v4.8a30.4,30.4,0,0,1,6.06,2.55A35.62,35.62,0,0,1,39.14,39a6.49,6.49,0,0,1,1.67,2.14,6,6,0,0,1,.62,2.67A5.78,5.78,0,0,1,41.1,46,5.33,5.33,0,0,1,40,47.88a3.28,3.28,0,0,1-.94.76,2.85,2.85,0,0,1-1.17.35,6.75,6.75,0,0,1-2.14-.11,8.49,8.49,0,0,1-2-.71c-1.13-.58-2.24-1.17-3.34-1.76s-2.17-1.19-3.22-1.81A15.44,15.44,0,0,1,25,50.25a15.67,15.67,0,0,1-4.16,4.43,9.82,9.82,0,0,1-3.22,1.52,10,10,0,0,1-3.58.29,16.42,16.42,0,0,1-3.95-.82A18.39,18.39,0,0,1,6.39,54a13.52,13.52,0,0,1-3.9-3.6A13.7,13.7,0,0,1,.23,45.54a9.8,9.8,0,0,1,1.76-8,16.76,16.76,0,0,1,6-4.89A16.45,16.45,0,0,1,15.59,31L15.7,7.1a9.67,9.67,0,0,0-.38-2.7A9,9,0,0,0,14.18,1.88Zm1.41,39.73a7.61,7.61,0,0,0-2.93.09A6.62,6.62,0,0,0,10,42.9a.93.93,0,0,0-.47.82,1.22,1.22,0,0,0,.35.88,4.12,4.12,0,0,0,.91.47,3.22,3.22,0,0,0,1,.17,3.61,3.61,0,0,0,1.23-.2,3.83,3.83,0,0,0,1.11-.62,2.85,2.85,0,0,0,1.05-1.23A3.65,3.65,0,0,0,15.59,41.61Z"/><path class="cls-1" d="M64.63,7.68a10.78,10.78,0,0,0,2.43.21,10.08,10.08,0,0,0,2.49-.38c1.45-.39,2.89-.83,4.34-1.32s2.85-1,4.22-1.61,2.82-1.06,4.24-1.52,2.86-.88,4.31-1.24A5.13,5.13,0,0,1,89,1.8a5,5,0,0,1,2.14,1,15.52,15.52,0,0,1,3.25,3.63,16,16,0,0,1,2,4.4,5.17,5.17,0,0,1-.12,3.25,5.41,5.41,0,0,1-2,2.61l-9.44,7.73a16.09,16.09,0,0,1,6-.06,17.26,17.26,0,0,1,5.6,2.05,9.65,9.65,0,0,1,2.52,2.2,10.53,10.53,0,0,1,1.64,2.9,17.29,17.29,0,0,1,.47,8.91,15.75,15.75,0,0,1-1.47,3.89,15,15,0,0,1-2.46,3.37,32.81,32.81,0,0,1-3.46,3,32,32,0,0,1-3.81,2.49,20.23,20.23,0,0,1-5.83,2,20.67,20.67,0,0,1-6.18.24,3.1,3.1,0,0,1-1.67-.77,3,3,0,0,1-1-1.52,6.1,6.1,0,0,1-.27-2,7.34,7.34,0,0,1,.32-1.91,5.13,5.13,0,0,0,0-3.1,6.1,6.1,0,0,0,2,0,7.75,7.75,0,0,0,1.93-.56,20.41,20.41,0,0,0,4.45-2.66,21.07,21.07,0,0,0,3.64-3.67,2.27,2.27,0,0,0,.55-1.75,2.63,2.63,0,0,0-.79-1.7,5,5,0,0,0-2.11-1.12,4.43,4.43,0,0,0-2.34.06,45.71,45.71,0,0,0-6,2.17A42.87,42.87,0,0,0,71,40a9.72,9.72,0,0,1-2,1,10.59,10.59,0,0,1-2.11.59,4,4,0,0,1-1.62,0,4.15,4.15,0,0,1-1.43-.56,8.44,8.44,0,0,1-2.87-2.87,5,5,0,0,1-.62-2.05,4.12,4.12,0,0,1,.38-2.11,15.92,15.92,0,0,1,1.73-3,18.05,18.05,0,0,1,2.32-2.55L78.93,15.77a24.92,24.92,0,0,1-4.19,1.85,21.08,21.08,0,0,1-4.54,1,4.29,4.29,0,0,1-1.59-.06,5.09,5.09,0,0,1-1.52-.58,6.29,6.29,0,0,1-1-.82,5.32,5.32,0,0,1-.73-1,6.17,6.17,0,0,1-.53-1.84A4.58,4.58,0,0,1,65,12.37a7.41,7.41,0,0,0,.18-2.4A7.5,7.5,0,0,0,64.63,7.68Z"/><path class="cls-1" d="M137.7,1.12a15.26,15.26,0,0,0,2.87,0,12,12,0,0,0,2.75-.61,11.72,11.72,0,0,1,2.9-.47,10.94,10.94,0,0,1,3,.29,4.42,4.42,0,0,1,1.52.79,4.29,4.29,0,0,1,1.12,1.32,5.55,5.55,0,0,1,.49,1.49,5.9,5.9,0,0,1,.09,1.56l.12,4.8,2.58-.53a8.61,8.61,0,0,0,1.81,3A10,10,0,0,0,159.73,15a2.82,2.82,0,0,0,2,.32,3.47,3.47,0,0,0,1.82-1,6.14,6.14,0,0,1,0,3,5.89,5.89,0,0,1-1.44,2.61A6.54,6.54,0,0,1,160.61,21a5.13,5.13,0,0,1-1.7.55l-6.8,1.12c0,1.13,0,2.24-.12,3.34s-.19,2.18-.35,3.28a14.42,14.42,0,0,1,2,5.86,13.9,13.9,0,0,1-.61,6.15,23.91,23.91,0,0,1-5.31,9.34,23.28,23.28,0,0,1-8.81,6.07,14.42,14.42,0,0,1-4.75,1,14.13,14.13,0,0,1-4.8-.58,2.65,2.65,0,0,1-1.18-.79,2.73,2.73,0,0,1-.58-1.32c0-.59-.06-1.18-.06-1.79a9.69,9.69,0,0,1,.17-1.79,16.48,16.48,0,0,0,.12-2,15.15,15.15,0,0,0-.12-1.93,12.59,12.59,0,0,0,5-.09,12.27,12.27,0,0,0,4.63-2.08,7.51,7.51,0,0,1-3.4,0A7.93,7.93,0,0,1,130.9,44a9.88,9.88,0,0,1-2.49-3,8.49,8.49,0,0,1-1.09-3.72,11.09,11.09,0,0,1,.3-3.75,10.91,10.91,0,0,1,1.52-3.45,12.22,12.22,0,0,1,10.25-5.51V24c-2.5.24-5,.39-7.5.47s-5,.08-7.5,0a14.21,14.21,0,0,1-2.28-.29,11.21,11.21,0,0,1-2.17-.7,3.6,3.6,0,0,1-1.32-.88,3.42,3.42,0,0,1-.79-1.35,11.64,11.64,0,0,1-.47-2.26,9.39,9.39,0,0,1,.06-2.25,7.26,7.26,0,0,0,.12-1.85,11,11,0,0,0-.29-1.84,19.51,19.51,0,0,0,2.57.52,14.43,14.43,0,0,0,2.64.12c2.81-.12,5.64-.29,8.47-.53s5.65-.54,8.46-.93a29.8,29.8,0,0,0,0-3.78,28.22,28.22,0,0,0-.46-3.72,15.16,15.16,0,0,0-.47-1.82A12.15,12.15,0,0,0,137.7,1.12Zm1.11,33.81a2.24,2.24,0,0,0-1.52-.15,2.18,2.18,0,0,0-1.23.85.86.86,0,0,0-.18.91.79.79,0,0,0,.7.56,1.33,1.33,0,0,0,.79,0,1.7,1.7,0,0,0,.68-.41,3,3,0,0,0,.52-.85A3.6,3.6,0,0,0,138.81,34.93ZM154.16,3.76a10.49,10.49,0,0,1,4,1.26,9.59,9.59,0,0,1,3.17,2.78,10,10,0,0,1,1.11,1.76,10.78,10.78,0,0,1,.76,2,2.15,2.15,0,0,1,0,1.23,2,2,0,0,1-.7,1.06,2.23,2.23,0,0,1-1.23.55,3.24,3.24,0,0,1-1.41-.14,7.42,7.42,0,0,1-2.08-1.41,6.94,6.94,0,0,1-1.43-2,16,16,0,0,1-1-2.37A16.23,16.23,0,0,1,154.86,6a6.05,6.05,0,0,0-.23-1.17A5.44,5.44,0,0,0,154.16,3.76Zm6.27-2.35a9,9,0,0,1,4.69,1.53,12.77,12.77,0,0,1,2,1.87,11.81,11.81,0,0,1,1.55,2.35,4.26,4.26,0,0,1,.41,2.08,3.87,3.87,0,0,1-.64,2,1.54,1.54,0,0,1-1,.73,1.62,1.62,0,0,1-1.23-.2,8,8,0,0,1-1.58-1.23,8,8,0,0,1-1.23-1.59,15.44,15.44,0,0,1-1.29-2.57,22.14,22.14,0,0,1-.88-2.76,10,10,0,0,0-.32-1.08A9.67,9.67,0,0,0,160.43,1.41Z"/><path class="cls-1" d="M196.52,10.61a8.61,8.61,0,0,1,1.35.47,4.06,4.06,0,0,1,1.17.82V7.27c0-.5,0-1-.08-1.52a13.46,13.46,0,0,0-.27-1.52,6.34,6.34,0,0,0,1.38,0,12,12,0,0,0,1.38-.27,9.74,9.74,0,0,1,2.63-.46,16.27,16.27,0,0,1,2.7.11,35.17,35.17,0,0,1,3.86-1.87A29.06,29.06,0,0,1,214.75.36a5.24,5.24,0,0,1,2.49,0,5.53,5.53,0,0,1,2.25,1.11,18.89,18.89,0,0,1,2,1.91,22.47,22.47,0,0,1,1.76,2.14A5.53,5.53,0,0,1,224,7.16,7.81,7.81,0,0,1,224.36,9l-.24,37.21a16.58,16.58,0,0,1-.29,3,13.17,13.17,0,0,1-.94,2.93,8.19,8.19,0,0,1-1.11,1.9,9.64,9.64,0,0,1-1.58,1.61,2.61,2.61,0,0,1-1.29.56,2.8,2.8,0,0,1-1.35-.15,12.88,12.88,0,0,0-1.93-.55,9.71,9.71,0,0,0-2-.21q-1.75-.06-3.54,0c-1.19.06-2.37.17-3.55.32a4.22,4.22,0,0,1-1.46.53,3.89,3.89,0,0,1-1.52-.06,4.18,4.18,0,0,1-1.5-.64,4.42,4.42,0,0,1-1.14-1.18,9.8,9.8,0,0,1-1.5-2.93,10,10,0,0,1-.44-3.28V37.63a3.83,3.83,0,0,1-1.28-.33,3,3,0,0,1-1.06-.79l.06,7.38a24.8,24.8,0,0,1-.76,6.13,23,23,0,0,1-2.29,5.71,2.4,2.4,0,0,1-1.81,1.32,2.35,2.35,0,0,1-2.11-.62,22.61,22.61,0,0,1-4.1-4.86,23.24,23.24,0,0,1-2.64-5.8,1.91,1.91,0,0,1-1.14.64,2.23,2.23,0,0,1-1.32-.17,5.61,5.61,0,0,1-1.09-.73,3.59,3.59,0,0,1-.79-1,2.6,2.6,0,0,0-.41-.53,2.39,2.39,0,0,0-.58-.41,12.39,12.39,0,0,0,.73-1.2,11.79,11.79,0,0,0,.56-1.26,78.26,78.26,0,0,0,2.31-7.5c.64-2.54,1.16-5.11,1.55-7.73a2.51,2.51,0,0,1-1.61-.44,2.56,2.56,0,0,1-1-1.32,17.91,17.91,0,0,1-.65-2.52,18.86,18.86,0,0,1-.29-2.58q-.06-.64-.15-1.26c-.06-.41-.13-.83-.2-1.26a12,12,0,0,0,1.73-.47c.56-.19,1.12-.41,1.67-.64l3.63-1.52v-8a9.9,9.9,0,0,0-.21-2,10.58,10.58,0,0,0-.61-2,9,9,0,0,0,1.64,0,15.56,15.56,0,0,0,1.64-.27c.7-.15,1.43-.28,2.2-.38l2.25-.26A2.36,2.36,0,0,1,194,1a3,3,0,0,1,1,.65,5.78,5.78,0,0,1,1.17,1.87,5.84,5.84,0,0,1,.41,2.17ZM184.63,43.89a1.43,1.43,0,0,0,.47.15,3.59,3.59,0,0,0,.47,0,.47.47,0,0,0,.38-.2.82.82,0,0,0,.14-.44V41.79a7.79,7.79,0,0,1-.67,1.11C185.17,43.25,184.9,43.58,184.63,43.89ZM199,26.14l.06-5.92a10.51,10.51,0,0,1-1.2.85l-1.2.74V23a16.51,16.51,0,0,1,1.23,1.49C198.26,25.06,198.63,25.59,199,26.14ZM209,41v1.64a15.18,15.18,0,0,1,1.55-.26,13.69,13.69,0,0,1,1.55-.09l.06-1.52c-.51,0-1,0-1.55.06S209.49,41,209,41Zm.17-12.54V30a10.33,10.33,0,0,1,1.58-.35q.83-.12,1.59-.18V28c-.55,0-1.09.09-1.62.17S209.63,28.37,209.12,28.48ZM212.46,17l.06-1.7-1.64.35c-.55.12-1.09.26-1.64.41v1.58c.55-.15,1.08-.28,1.61-.38Z"/><path class="cls-1" d="M242.81,2.06A8.62,8.62,0,0,0,244.57,2c.59-.08,1.17-.18,1.76-.29A6.9,6.9,0,0,1,249,1.3a8.35,8.35,0,0,1,2.61.52,3.48,3.48,0,0,1,1.61,1.41,3.58,3.58,0,0,1,.5,2.05l-.12,3.93.85,0,.91.08c0-.5-.07-1-.09-1.52s0-1-.08-1.58a6.74,6.74,0,0,0-.09-1.08,7.54,7.54,0,0,0-.26-1.09A13,13,0,0,1,259.37,6a12.08,12.08,0,0,1,3.42,3.52,26.77,26.77,0,0,0,.33-2.9,24.32,24.32,0,0,0,0-3,5,5,0,0,0-.24-1.11,9.24,9.24,0,0,0-.41-1.06,12.2,12.2,0,0,0,1.79-.14c.6-.1,1.2-.23,1.79-.38a13,13,0,0,1,2.49-.36,10.24,10.24,0,0,1,2.43.18,2.67,2.67,0,0,1,1.55.88,3,3,0,0,1,.73,1.64,19.46,19.46,0,0,1,.12,3.05,21,21,0,0,1-.35,3,22,22,0,0,0,1.87-2,19.11,19.11,0,0,0,1.59-2.17c.19-.39.38-.79.55-1.2a5.71,5.71,0,0,0,.38-1.26,13.48,13.48,0,0,0,1,1,7.94,7.94,0,0,0,1.11.82A20.26,20.26,0,0,1,282,6.78a18.17,18.17,0,0,1,2.11,2.6,2.78,2.78,0,0,1,.44,1.38,4.15,4.15,0,0,1-.2,1.44,6.18,6.18,0,0,1-.71,1,4.56,4.56,0,0,1-.93.82,15.27,15.27,0,0,1-3,1.44,16.63,16.63,0,0,1-3.2.79c.55.62,1.12,1.23,1.73,1.82s1.22,1.15,1.85,1.69,1.06,1,1.55,1.56,1,1.08,1.44,1.67a6.12,6.12,0,0,1,.9,1.67,5.5,5.5,0,0,1,.33,1.9,4.19,4.19,0,0,1-.38,1.76,3.8,3.8,0,0,1-1.15,1.41,3.53,3.53,0,0,1-1.61.76,5.17,5.17,0,0,1-1.84,0,13.46,13.46,0,0,1,1.81,1.81,11.54,11.54,0,0,1,1.41,2.17,2.31,2.31,0,0,1,.14,1.41,2.37,2.37,0,0,1-.67,1.29,10.64,10.64,0,0,1-3,2.19,11.87,11.87,0,0,1-3.48,1.15,55.81,55.81,0,0,1,4,4.3q1.88,2.27,3.57,4.66a6.83,6.83,0,0,1,.94,2,6.65,6.65,0,0,1,.24,2.11,3.5,3.5,0,0,1-.91,2,3,3,0,0,1-2,1,4.73,4.73,0,0,1-1.91,0,5.5,5.5,0,0,1-1.79-.73,37.26,37.26,0,0,1-5-3.84,34.27,34.27,0,0,1-4.19-4.66,16.59,16.59,0,0,1-3.48,5.3A15.65,15.65,0,0,1,260,56.2a3.52,3.52,0,0,1-2.14.26,4,4,0,0,1-1.9-.9,12.58,12.58,0,0,1-1-1.24,7.28,7.28,0,0,1-.73-1.34c-1.45.15-2.89.32-4.34.5s-2.89.38-4.33.61a3,3,0,0,1-1.44.88,3.15,3.15,0,0,1-1.67,0,4.67,4.67,0,0,1-1.17-.62,3.25,3.25,0,0,1-.88-1,3.4,3.4,0,0,1-.38-.79,5,5,0,0,1-.21-.85A60.1,60.1,0,0,1,239.36,40a15,15,0,0,0,0-1.64,11.58,11.58,0,0,0-.24-1.64,5.68,5.68,0,0,0,1.29-.15,8,8,0,0,0,1.23-.38,5.43,5.43,0,0,1,1.82-.38,7,7,0,0,1,1.87.2,20.92,20.92,0,0,1,3.28-.79,22.62,22.62,0,0,1,3.34-.26,6.08,6.08,0,0,1,2.23.29,6.28,6.28,0,0,1,1.93,1.06,14.27,14.27,0,0,1-.46-1.76,13.28,13.28,0,0,1-.24-1.76,49.48,49.48,0,0,1-6.24,1.47,58.07,58.07,0,0,1-6.36.7,1.76,1.76,0,0,1-1.08-.38,1.84,1.84,0,0,1-.67-.91,7.34,7.34,0,0,1-.24-1.26,6.63,6.63,0,0,1,0-1.26,4.1,4.1,0,0,0,0-1,9,9,0,0,0-.17-1,14.92,14.92,0,0,0,1.64,0,8.23,8.23,0,0,0,1.58-.21q2.52-.81,5-1.4c1.67-.39,3.37-.73,5.09-1a3,3,0,0,1,2.82,1.17,3.69,3.69,0,0,1,.5,1.15,5.86,5.86,0,0,1,.14,1.26,11.52,11.52,0,0,1,2.93,1.58,12.08,12.08,0,0,1,2.4,2.34,11.86,11.86,0,0,0,.53-2.61,9.94,9.94,0,0,0-.12-2.66,5,5,0,0,1-1.14.76,4.89,4.89,0,0,1-1.26.41,3.11,3.11,0,0,1-1.14-.09,2.53,2.53,0,0,1-1-.55,10.66,10.66,0,0,1-1.08-1.15,8.2,8.2,0,0,1-.85-1.26,3.68,3.68,0,0,0-.47-.58,2,2,0,0,0-.58-.41,10.52,10.52,0,0,0,1.08-1,10,10,0,0,0,.91-1.2,13.39,13.39,0,0,0,1.23-2,14.8,14.8,0,0,0,.88-2.14,5.73,5.73,0,0,1-1.67-1.11A4.45,4.45,0,0,1,257,16.82a39.07,39.07,0,0,1-7.94,2.55,39.92,39.92,0,0,1-8.23.85,2.94,2.94,0,0,1-1.43-.35,2.28,2.28,0,0,1-1-1.05,6.35,6.35,0,0,1-.5-2,7.59,7.59,0,0,1,.09-2,2.28,2.28,0,0,0-.09-1,2.85,2.85,0,0,0-.44-.91,8.93,8.93,0,0,0,1.44-.12,8.78,8.78,0,0,0,1.43-.35l3-.82L243.4,5a5.37,5.37,0,0,0-.09-1.5A5.67,5.67,0,0,0,242.81,2.06Zm-2.75,20a22.35,22.35,0,0,0,2.28-.12,11,11,0,0,0,2.29-.47c1.44-.39,2.91-.75,4.39-1.08s3-.62,4.46-.85a3.25,3.25,0,0,1,1.9.21,3.38,3.38,0,0,1,1.5,1.2,2.36,2.36,0,0,1,.38,1.37,2.45,2.45,0,0,1-.44,1.32,5.16,5.16,0,0,1-1.38,1.26,5.89,5.89,0,0,1-1.67.73l-5.36,1.18q-2.67.59-5.36,1.11a2.32,2.32,0,0,1-1.38-.06,2.15,2.15,0,0,1-1.08-.82,4.18,4.18,0,0,1-.47-1.38,3.45,3.45,0,0,1,.06-1.43,3.59,3.59,0,0,0,0-1.09A7.6,7.6,0,0,0,240.06,22Zm7.21,21.39-.12,2.81L249,46V43Zm10.25-2.82-.47,8.44a17.27,17.27,0,0,0,2.05-2.9,24.15,24.15,0,0,0,1.53-3.25,5.18,5.18,0,0,1-1.82-.82A4.14,4.14,0,0,1,257.52,40.61Zm11.6-18.39c-.23.39-.48.78-.73,1.17a10.19,10.19,0,0,1-.85,1.11,8.53,8.53,0,0,1,2,0,6.62,6.62,0,0,1,2,.53q-.64-.71-1.26-1.41C269.85,23.15,269.47,22.68,269.12,22.22Zm4,11a16.49,16.49,0,0,0,1.41-2,12.58,12.58,0,0,0,1.06-2.26c-.44-.38-.88-.78-1.32-1.17L273,26.55a1.64,1.64,0,0,1,.26.53c.06.19.11.39.15.58a23.72,23.72,0,0,1,.06,2.79A20.57,20.57,0,0,1,273.16,33.17Z"/></g></g></svg>