<svg xmlns="http://www.w3.org/2000/svg" viewBox="0 0 122.6 124.44"><defs><style>.cls-1{isolation:isolate;}.cls-2{fill:#231815;}.cls-3{fill:#fff;}.cls-4{fill:none;stroke:#fff;stroke-width:8px;}</style></defs><title>アセット 1</title><g id="レイヤー_2" data-name="レイヤー 2"><g id="レイヤー_1-2" data-name="レイヤー 1"><g id="レイヤー_2-2" data-name="レイヤー 2"><g id="レイヤー_2-2-2" data-name="レイヤー 2-2"><g id="レイヤー_1-2-2" data-name="レイヤー 1-2"><g class="cls-1"><path class="cls-2" d="M40.62,39.5a14.4,14.4,0,0,0,2.67,1,18.78,18.78,0,0,0,2.84.56,7.82,7.82,0,0,1,2.67.82A6.87,6.87,0,0,1,51,43.66a3.27,3.27,0,0,1,.74,1.61A3.1,3.1,0,0,1,51.52,47a53.11,53.11,0,0,0-2.81,10.92,51.38,51.38,0,0,0-.41,11.22,12.69,12.69,0,0,0,1.61-1.81,10.31,10.31,0,0,0,1.2-2.11c.12,2.69.11,5.39,0,8.08s-.4,5.39-.79,8.09a8.19,8.19,0,0,1-.88,2.87,9,9,0,0,1-1.81,2.4,3,3,0,0,1-1.91.73,2.69,2.69,0,0,1-1.9-.67,15.44,15.44,0,0,1-2.9-3.49A14.08,14.08,0,0,1,39.16,79a53.43,53.43,0,0,1-1.44-8.32,58,58,0,0,1-.14-8.44,78.74,78.74,0,0,1,.9-8.2c.45-2.74,1-5.43,1.73-8.09a17.42,17.42,0,0,0,.53-3.19A14.77,14.77,0,0,0,40.62,39.5ZM63.3,37.8a13,13,0,0,0,1.87,0A8.41,8.41,0,0,0,67,37.39a15.54,15.54,0,0,1,3.31-.47,13,13,0,0,1,3.25.29,3,3,0,0,1,1.06.44,3.61,3.61,0,0,1,.82.79,6.49,6.49,0,0,1,.82,1.67A6.16,6.16,0,0,1,76.54,42l.29,4.92a6.63,6.63,0,0,1,3,1,6.29,6.29,0,0,1,2.2,2.32,5,5,0,0,1,.62,2.05,4.13,4.13,0,0,1-.39,2.11A7.7,7.7,0,0,1,80,56.75a8.91,8.91,0,0,1-3,1.38c0,1.87,0,3.75-.09,5.62s-.16,3.77-.32,5.69a12.24,12.24,0,0,1,3.22,1.75,14,14,0,0,1,2.64,2.64,13.54,13.54,0,0,1,.94,1.61A7,7,0,0,1,84,77.23,3.73,3.73,0,0,1,83.63,80a6.33,6.33,0,0,1-.88,1.32,7.1,7.1,0,0,1-1.17,1.09,3.67,3.67,0,0,1-1.93.61,3.52,3.52,0,0,1-1.94-.5,7.79,7.79,0,0,1-1.11-.67c-.35-.26-.68-.52-1-.79a8.56,8.56,0,0,1-1.2,3.16,9.52,9.52,0,0,1-2.25,2.52,8.61,8.61,0,0,1-2.76,1.5,10,10,0,0,1-3.1.49,14,14,0,0,1-4.72-.93,13.78,13.78,0,0,1-4.07-2.47,8.44,8.44,0,0,1-2.23-3,8.31,8.31,0,0,1-.7-3.63,13.38,13.38,0,0,1,.85-4.4,12.74,12.74,0,0,1,2.25-3.81,10.58,10.58,0,0,1,3.64-2.72,9.15,9.15,0,0,1,4.39-.85V60.12a24.63,24.63,0,0,1-3.37.47c-1.15.08-2.29.12-3.43.12a5.16,5.16,0,0,1-2.49-.77,5.06,5.06,0,0,1-1.78-1.81,14.66,14.66,0,0,1-1.47-3.84,13,13,0,0,1-.29-4.07,9.91,9.91,0,0,0,6,0l3.17-1.06,3.16-1-.29-5a13.46,13.46,0,0,0-.53-2.79A12.19,12.19,0,0,0,63.3,37.8Zm2.11,39.66a4.28,4.28,0,0,0-2.32-.29,3.8,3.8,0,0,0-2.08,1,.67.67,0,0,0-.29.7.75.75,0,0,0,.47.64,3.17,3.17,0,0,0,1,.21,3.59,3.59,0,0,0,1-.09,3.55,3.55,0,0,0,1.38-.79A2.91,2.91,0,0,0,65.41,77.46Z"/></g><g class="cls-1"><path class="cls-3" d="M40.62,39.5a14.4,14.4,0,0,0,2.67,1,18.78,18.78,0,0,0,2.84.56,7.82,7.82,0,0,1,2.67.82A6.87,6.87,0,0,1,51,43.66a3.27,3.27,0,0,1,.74,1.61A3.1,3.1,0,0,1,51.52,47a53.11,53.11,0,0,0-2.81,10.92,51.38,51.38,0,0,0-.41,11.22,12.69,12.69,0,0,0,1.61-1.81,10.31,10.31,0,0,0,1.2-2.11c.12,2.69.11,5.39,0,8.08s-.4,5.39-.79,8.09a8.19,8.19,0,0,1-.88,2.87,9,9,0,0,1-1.81,2.4,3,3,0,0,1-1.91.73,2.69,2.69,0,0,1-1.9-.67,15.44,15.44,0,0,1-2.9-3.49A14.08,14.08,0,0,1,39.16,79a53.43,53.43,0,0,1-1.44-8.32,58,58,0,0,1-.14-8.44,78.74,78.74,0,0,1,.9-8.2c.45-2.74,1-5.43,1.73-8.09a17.42,17.42,0,0,0,.53-3.19A14.77,14.77,0,0,0,40.62,39.5ZM63.3,37.8a13,13,0,0,0,1.87,0A8.41,8.41,0,0,0,67,37.39a15.54,15.54,0,0,1,3.31-.47,13,13,0,0,1,3.25.29,3,3,0,0,1,1.06.44,3.61,3.61,0,0,1,.82.79,6.49,6.49,0,0,1,.82,1.67A6.16,6.16,0,0,1,76.54,42l.29,4.92a6.63,6.63,0,0,1,3,1,6.29,6.29,0,0,1,2.2,2.32,5,5,0,0,1,.62,2.05,4.13,4.13,0,0,1-.39,2.11A7.7,7.7,0,0,1,80,56.75a8.91,8.91,0,0,1-3,1.38c0,1.87,0,3.75-.09,5.62s-.16,3.77-.32,5.69a12.24,12.24,0,0,1,3.22,1.75,14,14,0,0,1,2.64,2.64,13.54,13.54,0,0,1,.94,1.61A7,7,0,0,1,84,77.23,3.73,3.73,0,0,1,83.63,80a6.33,6.33,0,0,1-.88,1.32,7.1,7.1,0,0,1-1.17,1.09,3.67,3.67,0,0,1-1.93.61,3.52,3.52,0,0,1-1.94-.5,7.79,7.79,0,0,1-1.11-.67c-.35-.26-.68-.52-1-.79a8.56,8.56,0,0,1-1.2,3.16,9.52,9.52,0,0,1-2.25,2.52,8.61,8.61,0,0,1-2.76,1.5,10,10,0,0,1-3.1.49,14,14,0,0,1-4.72-.93,13.78,13.78,0,0,1-4.07-2.47,8.44,8.44,0,0,1-2.23-3,8.31,8.31,0,0,1-.7-3.63,13.38,13.38,0,0,1,.85-4.4,12.74,12.74,0,0,1,2.25-3.81,10.58,10.58,0,0,1,3.64-2.72,9.15,9.15,0,0,1,4.39-.85V60.12a24.63,24.63,0,0,1-3.37.47c-1.15.08-2.29.12-3.43.12a5.16,5.16,0,0,1-2.49-.77,5.06,5.06,0,0,1-1.78-1.81,14.66,14.66,0,0,1-1.47-3.84,13,13,0,0,1-.29-4.07,9.91,9.91,0,0,0,6,0l3.17-1.06,3.16-1-.29-5a13.46,13.46,0,0,0-.53-2.79A12.19,12.19,0,0,0,63.3,37.8Zm2.11,39.66a4.28,4.28,0,0,0-2.32-.29,3.8,3.8,0,0,0-2.08,1,.67.67,0,0,0-.29.7.75.75,0,0,0,.47.64,3.17,3.17,0,0,0,1,.21,3.59,3.59,0,0,0,1-.09,3.55,3.55,0,0,0,1.38-.79A2.91,2.91,0,0,0,65.41,77.46Z"/></g><ellipse class="cls-4" cx="61.3" cy="62.22" rx="57.3" ry="58.22"/></g></g></g></g></g></svg>