<svg xmlns="http://www.w3.org/2000/svg" viewBox="0 0 122.6 124.44"><defs><style>.cls-1{isolation:isolate;}.cls-2{fill:#231815;}.cls-3{fill:#fff;}.cls-4{fill:none;stroke:#fff;stroke-width:8px;}</style></defs><title>アセット 1</title><g id="レイヤー_2" data-name="レイヤー 2"><g id="レイヤー_1-2" data-name="レイヤー 1"><g id="レイヤー_2-2" data-name="レイヤー 2"><g id="レイヤー_2-2-2" data-name="レイヤー 2-2"><g id="レイヤー_1-2-2" data-name="レイヤー 1-2"><g class="cls-1"><path class="cls-2" d="M33.12,60.59A14.57,14.57,0,0,0,36.23,59a14.27,14.27,0,0,0,2.64-2.26,26.52,26.52,0,0,0,2-2.11c.62-.74,1.23-1.5,1.81-2.28a31.14,31.14,0,0,1,7.74-7.27,6.79,6.79,0,0,1,3-1.08,7.34,7.34,0,0,1,3.13.26,12.65,12.65,0,0,1,2.9,1.44,10.35,10.35,0,0,1,2.38,2.13,140.5,140.5,0,0,0,9.69,10.46q5.13,5,10.7,9.47A26.57,26.57,0,0,1,84.54,70a20.93,20.93,0,0,1,2.08,2.52,11.94,11.94,0,0,1,.91,1.58,9.87,9.87,0,0,1,.61,1.76,5.21,5.21,0,0,1,.09,1.67,4.15,4.15,0,0,1-.5,1.61A6.11,6.11,0,0,1,86.3,81a7.31,7.31,0,0,1-2,1.29,5.42,5.42,0,0,1-2.23.35A4.7,4.7,0,0,1,79.88,82c-.86-.47-1.7-1-2.52-1.52s-1.62-1.13-2.4-1.76a126.73,126.73,0,0,1-10.81-9.64,115,115,0,0,1-9.58-10.86A46.66,46.66,0,0,1,45,69.61a3.92,3.92,0,0,1-1.44.85,4,4,0,0,1-1.61.21,4.35,4.35,0,0,1-1.76-.5A3.77,3.77,0,0,1,38.81,69a21.35,21.35,0,0,1-1.5-2.2q-.68-1.14-1.26-2.37a8.77,8.77,0,0,0-1.23-2.08A10.71,10.71,0,0,0,33.12,60.59Z"/></g><g class="cls-1"><path class="cls-3" d="M33.12,60.59A14.57,14.57,0,0,0,36.23,59a14.27,14.27,0,0,0,2.64-2.26,26.52,26.52,0,0,0,2-2.11c.62-.74,1.23-1.5,1.81-2.28a31.14,31.14,0,0,1,7.74-7.27,6.79,6.79,0,0,1,3-1.08,7.34,7.34,0,0,1,3.13.26,12.65,12.65,0,0,1,2.9,1.44,10.35,10.35,0,0,1,2.38,2.13,140.5,140.5,0,0,0,9.69,10.46q5.13,5,10.7,9.47A26.57,26.57,0,0,1,84.54,70a20.93,20.93,0,0,1,2.08,2.52,11.94,11.94,0,0,1,.91,1.58,9.87,9.87,0,0,1,.61,1.76,5.21,5.21,0,0,1,.09,1.67,4.15,4.15,0,0,1-.5,1.61A6.11,6.11,0,0,1,86.3,81a7.31,7.31,0,0,1-2,1.29,5.42,5.42,0,0,1-2.23.35A4.7,4.7,0,0,1,79.88,82c-.86-.47-1.7-1-2.52-1.52s-1.62-1.13-2.4-1.76a126.73,126.73,0,0,1-10.81-9.64,115,115,0,0,1-9.58-10.86A46.66,46.66,0,0,1,45,69.61a3.92,3.92,0,0,1-1.44.85,4,4,0,0,1-1.61.21,4.35,4.35,0,0,1-1.76-.5A3.77,3.77,0,0,1,38.81,69a21.35,21.35,0,0,1-1.5-2.2q-.68-1.14-1.26-2.37a8.77,8.77,0,0,0-1.23-2.08A10.71,10.71,0,0,0,33.12,60.59Z"/></g><ellipse class="cls-4" cx="61.3" cy="62.22" rx="57.3" ry="58.22"/></g></g></g></g></g></svg>