<svg xmlns="http://www.w3.org/2000/svg" viewBox="0 0 122.6 124.44"><defs><style>.cls-1{isolation:isolate;}.cls-2{fill:#231815;}.cls-3{fill:#fff;}.cls-4{fill:none;stroke:#fff;stroke-width:8px;}</style></defs><title>アセット 1</title><g id="レイヤー_2" data-name="レイヤー 2"><g id="レイヤー_1-2" data-name="レイヤー 1"><g id="レイヤー_2-2" data-name="レイヤー 2"><g id="レイヤー_2-2-2" data-name="レイヤー 2-2"><g id="レイヤー_1-2-2" data-name="レイヤー 1-2"><g class="cls-1"><path class="cls-2" d="M41,38.26a13.09,13.09,0,0,0,2.49,1.15,17.56,17.56,0,0,0,2.73.67,8.27,8.27,0,0,1,2.55.76,7.47,7.47,0,0,1,2.14,1.58,4.38,4.38,0,0,1,.7,1,4.46,4.46,0,0,1,.41,1.14,7.28,7.28,0,0,1,.18,2,7.21,7.21,0,0,1-.42,2,41.95,41.95,0,0,0-2.87,19.57c.51-.55,1-1.11,1.47-1.67s.9-1.15,1.29-1.73a61.45,61.45,0,0,1-.41,8,61.78,61.78,0,0,1-1.47,7.91,12.17,12.17,0,0,1-1.08,2.93A16.35,16.35,0,0,1,47,86.25a2.28,2.28,0,0,1-1.52.82,2.16,2.16,0,0,1-1.64-.41,10.77,10.77,0,0,1-2.55-2.4,12.12,12.12,0,0,1-1.73-3.05,30.43,30.43,0,0,1-1.76-6.35,37.18,37.18,0,0,1-.47-6.6,118,118,0,0,1,1.09-12,110.26,110.26,0,0,1,2.31-11.77,14.26,14.26,0,0,0,.47-3.11A16.1,16.1,0,0,0,41,38.26Zm13.19.65a14.45,14.45,0,0,0,2.78.67,10.82,10.82,0,0,0,2.9,0c1.56-.15,3.13-.38,4.69-.67s3.1-.64,4.63-1a18.06,18.06,0,0,1,2.58-.5,13,13,0,0,1,2.57,0,9,9,0,0,1,2.44.44,8.64,8.64,0,0,1,2.25,1.08,4.4,4.4,0,0,1,1.58,1.84A4.33,4.33,0,0,1,81,43.19a7.23,7.23,0,0,1-4.17,5.91v1.59a7.68,7.68,0,0,1,4.69,1.58,4.92,4.92,0,0,1,.94.94,6.47,6.47,0,0,1,.7,1.11,4.29,4.29,0,0,1,.41,1.87,3.6,3.6,0,0,1-.52,1.88,8.19,8.19,0,0,1-2.47,2.78,8,8,0,0,1-3.45,1.44L77.36,70a17.53,17.53,0,0,1,2.43,1.88,16.6,16.6,0,0,1,2.08,2.28,7.26,7.26,0,0,1,1.35,3.28,4.76,4.76,0,0,1,0,1.41,6.65,6.65,0,0,1-.32,1.35,3.93,3.93,0,0,1-.62,1,3.72,3.72,0,0,1-.9.82,3,3,0,0,1-.88.53,2.81,2.81,0,0,1-1,.18,8.22,8.22,0,0,1-1.93-.12A7.34,7.34,0,0,1,75.72,82a9.12,9.12,0,0,1-2,3.16,10,10,0,0,1-3.1,2.11,10.93,10.93,0,0,1-4.66.85,10.43,10.43,0,0,1-4.54-1.2A15.25,15.25,0,0,1,54.51,80a8.29,8.29,0,0,1,0-7.67,10,10,0,0,1,3.14-3.7,10.46,10.46,0,0,1,4.48-1.87A11.72,11.72,0,0,1,64,66.71a10.78,10.78,0,0,1,1.82.21l-.06-3.46a22.4,22.4,0,0,1-2.84.29c-1,0-1.91,0-2.84,0A7.1,7.1,0,0,1,54.74,61a11.13,11.13,0,0,1-2-3.93,11.63,11.63,0,0,1-.38-4.39,12.27,12.27,0,0,0,2.55.67,12.79,12.79,0,0,0,2.61.15,31.52,31.52,0,0,0,4-.38,31.09,31.09,0,0,0,3.93-.91l-.12-1.76a16.53,16.53,0,0,1-2.2.21A10.8,10.8,0,0,1,61,50.51a6.27,6.27,0,0,1-2.41-.85,6,6,0,0,1-1.87-1.79,14.52,14.52,0,0,1-2-4.3A13.44,13.44,0,0,1,54.22,38.91Zm11,37.91a2.17,2.17,0,0,0-.88-.62,3,3,0,0,0-1-.2,4.07,4.07,0,0,0-1.08.26,2.63,2.63,0,0,0-.91.62.82.82,0,0,0-.18.79.74.74,0,0,0,.53.56,4.45,4.45,0,0,0,1.11.2,6.89,6.89,0,0,0,1.12,0,1.63,1.63,0,0,0,1-.56A1.47,1.47,0,0,0,65.23,76.82Z"/></g><g class="cls-1"><path class="cls-3" d="M41,38.26a13.09,13.09,0,0,0,2.49,1.15,17.56,17.56,0,0,0,2.73.67,8.27,8.27,0,0,1,2.55.76,7.47,7.47,0,0,1,2.14,1.58,4.38,4.38,0,0,1,.7,1,4.46,4.46,0,0,1,.41,1.14,7.28,7.28,0,0,1,.18,2,7.21,7.21,0,0,1-.42,2,41.95,41.95,0,0,0-2.87,19.57c.51-.55,1-1.11,1.47-1.67s.9-1.15,1.29-1.73a61.45,61.45,0,0,1-.41,8,61.78,61.78,0,0,1-1.47,7.91,12.17,12.17,0,0,1-1.08,2.93A16.35,16.35,0,0,1,47,86.25a2.28,2.28,0,0,1-1.52.82,2.16,2.16,0,0,1-1.64-.41,10.77,10.77,0,0,1-2.55-2.4,12.12,12.12,0,0,1-1.73-3.05,30.43,30.43,0,0,1-1.76-6.35,37.18,37.18,0,0,1-.47-6.6,118,118,0,0,1,1.09-12,110.26,110.26,0,0,1,2.31-11.77,14.26,14.26,0,0,0,.47-3.11A16.1,16.1,0,0,0,41,38.26Zm13.19.65a14.45,14.45,0,0,0,2.78.67,10.82,10.82,0,0,0,2.9,0c1.56-.15,3.13-.38,4.69-.67s3.1-.64,4.63-1a18.06,18.06,0,0,1,2.58-.5,13,13,0,0,1,2.57,0,9,9,0,0,1,2.44.44,8.64,8.64,0,0,1,2.25,1.08,4.4,4.4,0,0,1,1.58,1.84A4.33,4.33,0,0,1,81,43.19a7.23,7.23,0,0,1-4.17,5.91v1.59a7.68,7.68,0,0,1,4.69,1.58,4.92,4.92,0,0,1,.94.94,6.47,6.47,0,0,1,.7,1.11,4.29,4.29,0,0,1,.41,1.87,3.6,3.6,0,0,1-.52,1.88,8.19,8.19,0,0,1-2.47,2.78,8,8,0,0,1-3.45,1.44L77.36,70a17.53,17.53,0,0,1,2.43,1.88,16.6,16.6,0,0,1,2.08,2.28,7.26,7.26,0,0,1,1.35,3.28,4.76,4.76,0,0,1,0,1.41,6.65,6.65,0,0,1-.32,1.35,3.93,3.93,0,0,1-.62,1,3.72,3.72,0,0,1-.9.82,3,3,0,0,1-.88.53,2.81,2.81,0,0,1-1,.18,8.22,8.22,0,0,1-1.93-.12A7.34,7.34,0,0,1,75.72,82a9.12,9.12,0,0,1-2,3.16,10,10,0,0,1-3.1,2.11,10.93,10.93,0,0,1-4.66.85,10.43,10.43,0,0,1-4.54-1.2A15.25,15.25,0,0,1,54.51,80a8.29,8.29,0,0,1,0-7.67,10,10,0,0,1,3.14-3.7,10.46,10.46,0,0,1,4.48-1.87A11.72,11.72,0,0,1,64,66.71a10.78,10.78,0,0,1,1.82.21l-.06-3.46a22.4,22.4,0,0,1-2.84.29c-1,0-1.91,0-2.84,0A7.1,7.1,0,0,1,54.74,61a11.13,11.13,0,0,1-2-3.93,11.63,11.63,0,0,1-.38-4.39,12.27,12.27,0,0,0,2.55.67,12.79,12.79,0,0,0,2.61.15,31.52,31.52,0,0,0,4-.38,31.09,31.09,0,0,0,3.93-.91l-.12-1.76a16.53,16.53,0,0,1-2.2.21A10.8,10.8,0,0,1,61,50.51a6.27,6.27,0,0,1-2.41-.85,6,6,0,0,1-1.87-1.79,14.52,14.52,0,0,1-2-4.3A13.44,13.44,0,0,1,54.22,38.91Zm11,37.91a2.17,2.17,0,0,0-.88-.62,3,3,0,0,0-1-.2,4.07,4.07,0,0,0-1.08.26,2.63,2.63,0,0,0-.91.62.82.82,0,0,0-.18.79.74.74,0,0,0,.53.56,4.45,4.45,0,0,0,1.11.2,6.89,6.89,0,0,0,1.12,0,1.63,1.63,0,0,0,1-.56A1.47,1.47,0,0,0,65.23,76.82Z"/></g><ellipse class="cls-4" cx="61.3" cy="62.22" rx="57.3" ry="58.22"/></g></g></g></g></g></svg>