<svg xmlns="http://www.w3.org/2000/svg" viewBox="0 0 122.6 124.44"><defs><style>.cls-1{isolation:isolate;}.cls-2{fill:#231815;}.cls-3{fill:#fff;}.cls-4{fill:none;stroke:#fff;stroke-width:8px;}</style></defs><title>アセット 1</title><g id="レイヤー_2" data-name="レイヤー 2"><g id="レイヤー_1-2" data-name="レイヤー 1"><g id="レイヤー_2-2" data-name="レイヤー 2"><g id="レイヤー_2-2-2" data-name="レイヤー 2-2"><g id="レイヤー_1-2-2" data-name="レイヤー 1-2"><g class="cls-1"><path class="cls-2" d="M38.22,43.77q1.29.06,2.52,0c.82,0,1.64-.09,2.46-.17a12.71,12.71,0,0,1,3,0,12,12,0,0,1,2.9.7,3.2,3.2,0,0,1,1.29.91,3.25,3.25,0,0,1,.7,1.43,10,10,0,0,1,.24,2.61,12.23,12.23,0,0,1-.41,2.61,30.56,30.56,0,0,0-.88,5.71,28.54,28.54,0,0,0,.23,5.77,10,10,0,0,0,1.09,3.37,10.68,10.68,0,0,0,2.13,2.84,13,13,0,0,0,4.22-5.27,60.07,60.07,0,0,1,.35,6.56,59.94,59.94,0,0,1-.35,6.56,18.14,18.14,0,0,1-.88,3.81,14.83,14.83,0,0,1-1.75,3.52,2.84,2.84,0,0,1-1.62,1.17,2.61,2.61,0,0,1-2-.17,18.87,18.87,0,0,1-4.19-2.67A18.56,18.56,0,0,1,44,79.4,31.33,31.33,0,0,1,40.68,73a29.11,29.11,0,0,1-1.7-7,60.8,60.8,0,0,1-.41-8,55.14,55.14,0,0,1,.71-8,10.46,10.46,0,0,0,0-3.16A10.28,10.28,0,0,0,38.22,43.77ZM64.59,47a17.19,17.19,0,0,1,6.65,1,18.43,18.43,0,0,1,10.19,8.67,18.75,18.75,0,0,1,2.14,6.6,16.48,16.48,0,0,1,.06,4.21,19.4,19.4,0,0,1-.94,4.16A8.37,8.37,0,0,1,81.35,74a7.72,7.72,0,0,1-2,1.78,4.56,4.56,0,0,1-2.29.68,4.38,4.38,0,0,1-2.28-.56A14.7,14.7,0,0,1,72.18,74a16.11,16.11,0,0,1-2.08-2.35,11,11,0,0,0-1.94-2.19A12,12,0,0,0,65.7,67.8a6.05,6.05,0,0,0,1.64-.12A12.19,12.19,0,0,0,69,67.21a2.27,2.27,0,0,0,.94-.88,1.74,1.74,0,0,0,.24-1.23,54.15,54.15,0,0,0-1.09-6.36,60.56,60.56,0,0,0-1.79-6.18,31.08,31.08,0,0,0-1.2-2.87A25.79,25.79,0,0,0,64.59,47Z"/></g><g class="cls-1"><path class="cls-3" d="M38.22,43.77q1.29.06,2.52,0c.82,0,1.64-.09,2.46-.17a12.71,12.71,0,0,1,3,0,12,12,0,0,1,2.9.7,3.2,3.2,0,0,1,1.29.91,3.25,3.25,0,0,1,.7,1.43,10,10,0,0,1,.24,2.61,12.23,12.23,0,0,1-.41,2.61,30.56,30.56,0,0,0-.88,5.71,28.54,28.54,0,0,0,.23,5.77,10,10,0,0,0,1.09,3.37,10.68,10.68,0,0,0,2.13,2.84,13,13,0,0,0,4.22-5.27,60.07,60.07,0,0,1,.35,6.56,59.94,59.94,0,0,1-.35,6.56,18.14,18.14,0,0,1-.88,3.81,14.83,14.83,0,0,1-1.75,3.52,2.84,2.84,0,0,1-1.62,1.17,2.61,2.61,0,0,1-2-.17,18.87,18.87,0,0,1-4.19-2.67A18.56,18.56,0,0,1,44,79.4,31.33,31.33,0,0,1,40.68,73a29.11,29.11,0,0,1-1.7-7,60.8,60.8,0,0,1-.41-8,55.14,55.14,0,0,1,.71-8,10.46,10.46,0,0,0,0-3.16A10.28,10.28,0,0,0,38.22,43.77ZM64.59,47a17.19,17.19,0,0,1,6.65,1,18.43,18.43,0,0,1,10.19,8.67,18.75,18.75,0,0,1,2.14,6.6,16.48,16.48,0,0,1,.06,4.21,19.4,19.4,0,0,1-.94,4.16A8.37,8.37,0,0,1,81.35,74a7.72,7.72,0,0,1-2,1.78,4.56,4.56,0,0,1-2.29.68,4.38,4.38,0,0,1-2.28-.56A14.7,14.7,0,0,1,72.18,74a16.11,16.11,0,0,1-2.08-2.35,11,11,0,0,0-1.94-2.19A12,12,0,0,0,65.7,67.8a6.05,6.05,0,0,0,1.64-.12A12.19,12.19,0,0,0,69,67.21a2.27,2.27,0,0,0,.94-.88,1.74,1.74,0,0,0,.24-1.23,54.15,54.15,0,0,0-1.09-6.36,60.56,60.56,0,0,0-1.79-6.18,31.08,31.08,0,0,0-1.2-2.87A25.79,25.79,0,0,0,64.59,47Z"/></g><ellipse class="cls-4" cx="61.3" cy="62.22" rx="57.3" ry="58.22"/></g></g></g></g></g></svg>