<svg xmlns="http://www.w3.org/2000/svg" viewBox="0 0 228.7 57.53"><defs><style>.cls-1{fill:#fff;}</style></defs><title>アセット 3</title><g id="レイヤー_2" data-name="レイヤー 2"><g id="レイヤー_1-2" data-name="レイヤー 1"><path class="cls-1" d="M12.25,3.75a6.82,6.82,0,0,0,2,.64,9.32,9.32,0,0,0,2.11.12A8.17,8.17,0,0,1,19,4.72,7.16,7.16,0,0,1,21.5,5.8a3.26,3.26,0,0,1,1.12,1.06,3.54,3.54,0,0,1,.52,1.46,6.87,6.87,0,0,1,0,1.7,5.78,5.78,0,0,1-.38,1.64l-.58,1.7a17,17,0,0,1,5.39,2.46,18.71,18.71,0,0,1,4.28,4.1,6.61,6.61,0,0,1,1,2.29,6.79,6.79,0,0,1,.09,2.46l-.47,3.22a5.48,5.48,0,0,0,1.41-.47,1.48,1.48,0,0,0,.38-.44.81.81,0,0,0,.09-.55,34.93,34.93,0,0,0-1.09-5.07,37.41,37.41,0,0,0-1.79-4.84,13.72,13.72,0,0,0-1.23-2.19,15,15,0,0,0-1.52-1.91,9.7,9.7,0,0,1,9.08,1.12,22.49,22.49,0,0,1,5.77,5.74,23.82,23.82,0,0,1,3.49,7.38A9.77,9.77,0,0,1,47.49,29a13.07,13.07,0,0,1,0,2.34,13.66,13.66,0,0,1-1,3.72,13.81,13.81,0,0,1-2,3.31,3.07,3.07,0,0,1-2,1.14A3.17,3.17,0,0,1,40.25,39a18.14,18.14,0,0,1-2.08-1.37A22,22,0,0,1,36.27,36,20.12,20.12,0,0,1,34,33.22a26.22,26.22,0,0,1-1.85-3l-1.64,11a28.36,28.36,0,0,1-1.26,4.81,25,25,0,0,1-2.14,4.45,15.72,15.72,0,0,1-1.55,2A10.19,10.19,0,0,1,23.61,54a3.38,3.38,0,0,1-2.16.56,3.45,3.45,0,0,1-2.06-.85,13.21,13.21,0,0,1-2.1-2.25,14.48,14.48,0,0,1-1.59-2.67A33.35,33.35,0,0,1,14.18,45q-.64-1.91-1.11-3.9a26.28,26.28,0,0,1-1.61,4,30.86,30.86,0,0,1-2.2,3.66,7.51,7.51,0,0,1-1.35,1.46,6.75,6.75,0,0,1-1.7,1.06,4.54,4.54,0,0,1-3,.35,4.09,4.09,0,0,1-.79-.32,2.79,2.79,0,0,1-.67-.5A4,4,0,0,1,1.08,50a5.88,5.88,0,0,1-.44-.91,11.79,11.79,0,0,1-.26-1.29,9.32,9.32,0,0,1-.09-1.29A17.3,17.3,0,0,1,.5,43.15a16.72,16.72,0,0,1,.85-3.25L5,29.59a3.57,3.57,0,0,1-1.61.32,2.83,2.83,0,0,1-1.55-.5A2.65,2.65,0,0,1,1,28.62a2.54,2.54,0,0,1-.5-1.08A9.73,9.73,0,0,1,.09,25a10.77,10.77,0,0,1,.26-2.58,5.78,5.78,0,0,0,.09-1.76A6.61,6.61,0,0,0,0,18.93a8.55,8.55,0,0,0,2.14-.06,6.93,6.93,0,0,0,2-.65q1.29-.64,2.58-1.14c.86-.33,1.74-.63,2.64-.91l2.4-7.32a10.86,10.86,0,0,0,.52-2.52A11.72,11.72,0,0,0,12.25,3.75Zm6.09,21.5L13.89,38.5a7,7,0,0,0,1.87,1,12.11,12.11,0,0,0,2,.53,1.46,1.46,0,0,0,1-.26,1.38,1.38,0,0,0,.58-.91l2.47-14.53Z"/><path class="cls-1" d="M70.43,2.7a21.05,21.05,0,0,0,2.49-.15c.84-.1,1.67-.23,2.49-.38a9.22,9.22,0,0,1,2.52-.24,10.37,10.37,0,0,1,2.46.41A3.05,3.05,0,0,1,82,3.63a2.77,2.77,0,0,1,.41,2l-.23,7.09,1.58,1.7a29.52,29.52,0,0,1,3.4-1.31,24.38,24.38,0,0,1,3.57-.85,12.21,12.21,0,0,1,3.52,0,10.46,10.46,0,0,1,3.34,1.08,19.6,19.6,0,0,1,4.89,3.54,19.39,19.39,0,0,1,3.54,4.84,15.17,15.17,0,0,1,1.73,5.59,16.55,16.55,0,0,1-.38,5.83,48,48,0,0,1-1.67,5A40.35,40.35,0,0,1,103.48,43a18,18,0,0,1-3.4,4.48,17.62,17.62,0,0,1-4.63,3.19,9.48,9.48,0,0,1-2.43.74,10.35,10.35,0,0,1-2.55.08,3.85,3.85,0,0,1-1.38-.38,4.22,4.22,0,0,1-1.2-.85,4.18,4.18,0,0,1-1.08-1.81,4.69,4.69,0,0,1-.15-2.17,4.13,4.13,0,0,0-.09-1.64,3.63,3.63,0,0,0-.73-1.47,7.62,7.62,0,0,0,2-.64,6.2,6.2,0,0,0,1.76-1.23,20.72,20.72,0,0,0,3-3.87A23.22,23.22,0,0,0,94.8,33a9.38,9.38,0,0,0,.5-2.84,8.24,8.24,0,0,0-.44-2.85A3.42,3.42,0,0,0,94,25.78a3.61,3.61,0,0,0-1.49-.94,8.2,8.2,0,0,0-2.58-.41,7.74,7.74,0,0,0-2.64.47,11.46,11.46,0,0,0-3.19,1.94,10.25,10.25,0,0,0-2.37,2.93l-.59,15.52a30.14,30.14,0,0,1-.32,3.58A23.94,23.94,0,0,1,80,52.32a5.18,5.18,0,0,1-.82,1.82,5.9,5.9,0,0,1-1.41,1.41,3.26,3.26,0,0,1-1,.41,4,4,0,0,1-1.15.06,7.61,7.61,0,0,1-1.78-.71,5.2,5.2,0,0,1-1.5-1.23,19.91,19.91,0,0,1-3.86-6.56,3.89,3.89,0,0,1-4.57,1,7,7,0,0,1-1.67-.93,9.89,9.89,0,0,1-1.44-1.29,3.15,3.15,0,0,1-.76-1.47,3.26,3.26,0,0,1,.06-1.64,23.81,23.81,0,0,1,3.63-7.38l5.68-7.79a11.62,11.62,0,0,1-1.81.88,8.07,8.07,0,0,1-1.94.46,2.5,2.5,0,0,1-1.31-.11,2.21,2.21,0,0,1-1-.82,6.77,6.77,0,0,1-.67-1.38,4.31,4.31,0,0,1-.27-1.49c0-.67,0-1.33.09-2s.13-1.3.21-1.93a6.36,6.36,0,0,0,0-1.9,7.17,7.17,0,0,0-.46-1.85A5.28,5.28,0,0,0,64,17.78a4.76,4.76,0,0,0,1.53-.67,24.33,24.33,0,0,1,2.72-1.61c1-.49,1.93-.93,2.9-1.32l.12-7.27a7.74,7.74,0,0,0-.18-2.13A11.69,11.69,0,0,0,70.43,2.7Z"/><path class="cls-1" d="M128.67,15.35a17.34,17.34,0,0,0,3,.79,28.87,28.87,0,0,0,3.05.38,6.23,6.23,0,0,1,2.22.53,6.06,6.06,0,0,1,1.88,1.29,3.88,3.88,0,0,1,.94,1.82,4.18,4.18,0,0,1-.06,2.05l-2.46,7.38a36.47,36.47,0,0,1,12.07-3.81,12.66,12.66,0,0,1,9,2,13.58,13.58,0,0,1,3.11,2.7A14.49,14.49,0,0,1,163.59,34a12,12,0,0,1,1.12,4.19,13.54,13.54,0,0,1-.35,4.31,17.73,17.73,0,0,1-2.38,5.3A17.25,17.25,0,0,1,158.09,52a28.48,28.48,0,0,1-6.16,3.55,26.68,26.68,0,0,1-6.79,1.84,10.48,10.48,0,0,1-3.26,0,11.31,11.31,0,0,1-3.07-1,3.83,3.83,0,0,1-1.47-1.21,3.65,3.65,0,0,1-.7-1.78,4.84,4.84,0,0,1-.06-1.32,5.05,5.05,0,0,1,.3-1.32,5.07,5.07,0,0,0,.32-1.61,4,4,0,0,0-.27-1.61,11.17,11.17,0,0,0,2.23.12,8.49,8.49,0,0,0,2.17-.41,27.29,27.29,0,0,0,4.83-2.11,24.89,24.89,0,0,0,4.31-3,2.61,2.61,0,0,0,.94-2.61,2.74,2.74,0,0,0-1.82-2.14,10.38,10.38,0,0,0-2.55-.5,9.16,9.16,0,0,0-2.61.21,16.59,16.59,0,0,0-5.21,2.08,16.76,16.76,0,0,0-4.28,3.72,5.61,5.61,0,0,1-2.58,1.73,5.25,5.25,0,0,1-3,.09,8,8,0,0,1-5.39-4.4A9.18,9.18,0,0,1,123,37a8.55,8.55,0,0,1,.38-3.37l5.21-14.76a5.59,5.59,0,0,0,.33-1.73A5.23,5.23,0,0,0,128.67,15.35ZM135.06,0a18.39,18.39,0,0,0,4.1,2,23.19,23.19,0,0,0,4.45,1,13.9,13.9,0,0,1,3.43.79,15.92,15.92,0,0,1,3.19,1.61,10.62,10.62,0,0,1,1.91,1.76,9.5,9.5,0,0,1,1.38,2.17,5,5,0,0,1,.41,2.69,4.64,4.64,0,0,1-1.06,2.46,7.87,7.87,0,0,1-2.31,1.88,6.51,6.51,0,0,1-2.85.76,38.73,38.73,0,0,1-4.57,0,39.85,39.85,0,0,1-4.57-.56,7.9,7.9,0,0,0,1.09-.9,7.56,7.56,0,0,0,.91-1.15A10.2,10.2,0,0,1,137,12a11.65,11.65,0,0,1-2.31-3.66A10.69,10.69,0,0,1,134,4.1,10.22,10.22,0,0,1,135.06,0Z"/><path class="cls-1" d="M193.18,14.59l-.11-10.25a6.66,6.66,0,0,0-.18-1.53,6.56,6.56,0,0,0-.53-1.46q.64-.06,1.26-.15l1.2-.2a17.24,17.24,0,0,1,2-.36,20.24,20.24,0,0,1,2.08-.11,2.49,2.49,0,0,1,1.87.79,2.43,2.43,0,0,1,.7,1.9l.18,10a3.17,3.17,0,0,1,.88.12c.27.08.54.18.82.29a2.58,2.58,0,0,1-.56-.79,3.23,3.23,0,0,1-.26-1c-.08-.67-.13-1.32-.15-2s0-1.3,0-2a8,8,0,0,0,0-1.38,8.34,8.34,0,0,0-.23-1.37A7.83,7.83,0,0,0,203.67,5a8.81,8.81,0,0,0,1.53-.44c2.14-.74,4.32-1.39,6.53-1.93s4.42-1,6.65-1.35a11.08,11.08,0,0,1,2.69-.15,12.21,12.21,0,0,1,2.7.5,7.54,7.54,0,0,1,1.46.62,6.48,6.48,0,0,1,1.29.9,4.8,4.8,0,0,1,1.41,2.05,4.9,4.9,0,0,1,.18,2.47A5.6,5.6,0,0,1,227.7,9a7.27,7.27,0,0,1-5.81,4.22c-1.44.16-2.89.38-4.33.65s-2.89.57-4.34.88v2.11a23.15,23.15,0,0,1,3.05-.85c1-.22,2-.4,3.11-.56a4.07,4.07,0,0,1,1.9.21,4.24,4.24,0,0,1,1.61,1c.7.74,1.38,1.51,2,2.29a24.14,24.14,0,0,1,1.79,2.46,6.17,6.17,0,0,1,.94,2.34,6.59,6.59,0,0,1-.06,2.58,51.83,51.83,0,0,1-1.76,6.8,54.6,54.6,0,0,1-2.64,6.5c.63,1,1.24,2,1.85,3s1.2,2,1.79,3a16.85,16.85,0,0,1,1.26,2.87,13.2,13.2,0,0,1,.61,3.1,4,4,0,0,1-.17,1.5,4.44,4.44,0,0,1-.71,1.32c-.23.23-.48.45-.73.67a4.63,4.63,0,0,1-.85.56,3.36,3.36,0,0,1-1.49.35,3.77,3.77,0,0,1-1.56-.35,14.19,14.19,0,0,1-2.4-1.65,14.56,14.56,0,0,1-2.05-2.1l-.91-1.18L217,49.51a31.6,31.6,0,0,1-3.86,3.9,34.54,34.54,0,0,1-4.46,3.19,2.59,2.59,0,0,1-1.52.35,2.57,2.57,0,0,1-1.47-.58,11.91,11.91,0,0,1-1.2-1.26,7.68,7.68,0,0,1-1-1.5,3.22,3.22,0,0,0-.44-.55l-.5-.5A17.34,17.34,0,0,1,201.3,54a12.52,12.52,0,0,1-1.44,1.29,2.11,2.11,0,0,1-1.34.47,1.92,1.92,0,0,1-1.35-.53,9.05,9.05,0,0,1-1-1c-.29-.35-.58-.73-.85-1.12a2.8,2.8,0,0,0-.64-.82,4.46,4.46,0,0,0-.88-.58l.7-.94a6.84,6.84,0,0,1-1.38-2,5.89,5.89,0,0,1-.49-2.37l-.3-8.32h-1a38.56,38.56,0,0,1-2.7,8.17,35.46,35.46,0,0,1-4.51,7.35,1.58,1.58,0,0,1-1,.62,1.54,1.54,0,0,1-1.18-.32l-.88-.79a7.79,7.79,0,0,1-.76-.85,2.85,2.85,0,0,0-.47-.5,2.9,2.9,0,0,0-.52-.38c.47-1.18.91-2.35,1.32-3.52a31.59,31.59,0,0,0,1-3.57q.77-3.11,1.26-6.27c.33-2.11.6-4.22.79-6.33q.52-6.09.62-12.19T184.1,7.32a14.07,14.07,0,0,0-.29-2.11,10.34,10.34,0,0,0-.7-2,6.18,6.18,0,0,0,1.14-.2l1.14-.32a7.17,7.17,0,0,1,1.82-.47,9.75,9.75,0,0,1,1.87-.06,2.59,2.59,0,0,1,1.79.82,2.76,2.76,0,0,1,.79,1.82c.19,1.64.34,3.3.44,5s.17,3.34.2,5Zm-.88,11-.05,1.4,2-.47c.66-.15,1.33-.29,2-.41a2.58,2.58,0,0,1,1.2.06,3.35,3.35,0,0,1,1.09.53c.31.27.6.55.87.82a8.09,8.09,0,0,1,.77.88,3.45,3.45,0,0,1,.61,1,4.26,4.26,0,0,1,.27,1.12l.23,4.22c.51-1.88.93-3.78,1.26-5.72a51.75,51.75,0,0,0,.67-5.83Zm17.11,12.24c-.66,2-1.39,3.94-2.19,5.83s-1.67,3.78-2.61,5.66q1.81-2,3.43-4.16c1.07-1.45,2.08-2.93,3-4.46l-.82-1.4C210,38.85,209.69,38.36,209.41,37.85Zm6.92-7.79.58-1.94-2.11.12Z"/></g></g></svg>