<svg xmlns="http://www.w3.org/2000/svg" viewBox="0 0 122.6 124.44"><defs><style>.cls-1{isolation:isolate;}.cls-2{fill:#231815;}.cls-3{fill:#fff;}.cls-4{fill:none;stroke:#fff;stroke-width:8px;}</style></defs><title>アセット 1</title><g id="レイヤー_2" data-name="レイヤー 2"><g id="レイヤー_1-2" data-name="レイヤー 1"><g id="レイヤー_2-2" data-name="レイヤー 2"><g id="レイヤー_2-2-2" data-name="レイヤー 2-2"><g id="レイヤー_1-2-2" data-name="レイヤー 1-2"><g class="cls-1"><path class="cls-2" d="M42,41a7.74,7.74,0,0,0,2.2,1.46,9.08,9.08,0,0,0,2.49.71,8.41,8.41,0,0,1,3,1,8.66,8.66,0,0,1,2.37,2A4.36,4.36,0,0,1,53,48.31a4.67,4.67,0,0,1-.24,2.32A53.53,53.53,0,0,0,50.09,60a55.62,55.62,0,0,0-1,9.73,10.89,10.89,0,0,0,1.87-2,11.57,11.57,0,0,0,1.35-2.43,76.63,76.63,0,0,1-.41,8q-.41,4-1.17,7.94a8.84,8.84,0,0,1-1,2.52,7.91,7.91,0,0,1-1.67,2,3.09,3.09,0,0,1-2,.71,2.76,2.76,0,0,1-1.93-.76A15.6,15.6,0,0,1,40.83,82a15.37,15.37,0,0,1-2-4.57,33.38,33.38,0,0,1-1.09-6.68,36.84,36.84,0,0,1,.21-6.73c.35-2.78.81-5.53,1.38-8.27s1.23-5.42,2-8.08A19.89,19.89,0,0,0,42,44.36,19.31,19.31,0,0,0,42,41ZM56,69a4.62,4.62,0,0,0,.24,2,5.5,5.5,0,0,0,1,1.81A3.65,3.65,0,0,0,58.82,74a5.75,5.75,0,0,0,1.84.44q3.34,0,6.62-.27c2.19-.17,4.36-.44,6.51-.79a11,11,0,0,1,2.81-.09,9.56,9.56,0,0,1,2.7.68,8.36,8.36,0,0,1,2,1.2,8.59,8.59,0,0,1,1.61,1.73,4.86,4.86,0,0,1,.64,1.29,4.25,4.25,0,0,1,.24,1.4,6.23,6.23,0,0,1-.3,1.93,4.64,4.64,0,0,1-.93,1.7A9.08,9.08,0,0,1,80,85.58a8.73,8.73,0,0,1-3.28,1.14,37.65,37.65,0,0,1-8.29.38,40.3,40.3,0,0,1-8.24-1.37,10.11,10.11,0,0,1-7.09-7.15,10.28,10.28,0,0,1-.32-2.29A9.59,9.59,0,0,1,53,74a8.19,8.19,0,0,1,1.08-2.76A8.51,8.51,0,0,1,56,69Zm-.41-24.67a8.94,8.94,0,0,0,2.7.85,9.13,9.13,0,0,0,2.81,0c1.91-.39,3.85-.71,5.8-1s3.93-.46,5.92-.61A6,6,0,0,1,75.6,44a5.93,5.93,0,0,1,2.29,1.58,12.23,12.23,0,0,1,1.52,2.14,13.23,13.23,0,0,1,1.06,2.43,4.3,4.3,0,0,1,.06,2.31,4.06,4.06,0,0,1-1.18,2,14.54,14.54,0,0,1-3.07,2.16A15.76,15.76,0,0,1,72.79,58a25.07,25.07,0,0,1-3.54.56,20.74,20.74,0,0,1-3.61,0,7.5,7.5,0,0,0,2-1.26,7.25,7.25,0,0,0,1.49-1.79,10,10,0,0,1-4,.59,9.48,9.48,0,0,1-4-1.12,10.09,10.09,0,0,1-3.31-2.72,9.89,9.89,0,0,1-1.9-3.84,13.72,13.72,0,0,1-.33-2A10.47,10.47,0,0,1,55.62,44.36Z"/></g><g class="cls-1"><path class="cls-3" d="M42,41a7.74,7.74,0,0,0,2.2,1.46,9.08,9.08,0,0,0,2.49.71,8.41,8.41,0,0,1,3,1,8.66,8.66,0,0,1,2.37,2A4.36,4.36,0,0,1,53,48.31a4.67,4.67,0,0,1-.24,2.32A53.53,53.53,0,0,0,50.09,60a55.62,55.62,0,0,0-1,9.73,10.89,10.89,0,0,0,1.87-2,11.57,11.57,0,0,0,1.35-2.43,76.63,76.63,0,0,1-.41,8q-.41,4-1.17,7.94a8.84,8.84,0,0,1-1,2.52,7.91,7.91,0,0,1-1.67,2,3.09,3.09,0,0,1-2,.71,2.76,2.76,0,0,1-1.93-.76A15.6,15.6,0,0,1,40.83,82a15.37,15.37,0,0,1-2-4.57,33.38,33.38,0,0,1-1.09-6.68,36.84,36.84,0,0,1,.21-6.73c.35-2.78.81-5.53,1.38-8.27s1.23-5.42,2-8.08A19.89,19.89,0,0,0,42,44.36,19.31,19.31,0,0,0,42,41ZM56,69a4.62,4.62,0,0,0,.24,2,5.5,5.5,0,0,0,1,1.81A3.65,3.65,0,0,0,58.82,74a5.75,5.75,0,0,0,1.84.44q3.34,0,6.62-.27c2.19-.17,4.36-.44,6.51-.79a11,11,0,0,1,2.81-.09,9.56,9.56,0,0,1,2.7.68,8.36,8.36,0,0,1,2,1.2,8.59,8.59,0,0,1,1.61,1.73,4.86,4.86,0,0,1,.64,1.29,4.25,4.25,0,0,1,.24,1.4,6.23,6.23,0,0,1-.3,1.93,4.64,4.64,0,0,1-.93,1.7A9.08,9.08,0,0,1,80,85.58a8.73,8.73,0,0,1-3.28,1.14,37.65,37.65,0,0,1-8.29.38,40.3,40.3,0,0,1-8.24-1.37,10.11,10.11,0,0,1-7.09-7.15,10.28,10.28,0,0,1-.32-2.29A9.59,9.59,0,0,1,53,74a8.19,8.19,0,0,1,1.08-2.76A8.51,8.51,0,0,1,56,69Zm-.41-24.67a8.94,8.94,0,0,0,2.7.85,9.13,9.13,0,0,0,2.81,0c1.91-.39,3.85-.71,5.8-1s3.93-.46,5.92-.61A6,6,0,0,1,75.6,44a5.93,5.93,0,0,1,2.29,1.58,12.23,12.23,0,0,1,1.52,2.14,13.23,13.23,0,0,1,1.06,2.43,4.3,4.3,0,0,1,.06,2.31,4.06,4.06,0,0,1-1.18,2,14.54,14.54,0,0,1-3.07,2.16A15.76,15.76,0,0,1,72.79,58a25.07,25.07,0,0,1-3.54.56,20.74,20.74,0,0,1-3.61,0,7.5,7.5,0,0,0,2-1.26,7.25,7.25,0,0,0,1.49-1.79,10,10,0,0,1-4,.59,9.48,9.48,0,0,1-4-1.12,10.09,10.09,0,0,1-3.31-2.72,9.89,9.89,0,0,1-1.9-3.84,13.72,13.72,0,0,1-.33-2A10.47,10.47,0,0,1,55.62,44.36Z"/></g><ellipse class="cls-4" cx="61.3" cy="62.22" rx="57.3" ry="58.22"/></g></g></g></g></g></svg>