<svg xmlns="http://www.w3.org/2000/svg" viewBox="0 0 122.6 124.44"><defs><style>.cls-1{isolation:isolate;}.cls-2{fill:#231815;}.cls-3{fill:#fff;}.cls-4{fill:none;stroke:#fff;stroke-width:8px;}</style></defs><title>アセット 1</title><g id="レイヤー_2" data-name="レイヤー 2"><g id="レイヤー_1-2" data-name="レイヤー 1"><g id="レイヤー_2-2" data-name="レイヤー 2"><g id="レイヤー_2-2-2" data-name="レイヤー 2-2"><g id="レイヤー_1-2-2" data-name="レイヤー 1-2"><g class="cls-1"><path class="cls-2" d="M44.37,40.14a10.27,10.27,0,0,0,2.44.2A9.28,9.28,0,0,0,49.3,40c1.44-.39,2.89-.83,4.33-1.31s2.85-1,4.22-1.62S60.67,36,62.1,35.51s2.86-.88,4.31-1.23a5.19,5.19,0,0,1,4.51,1,15.35,15.35,0,0,1,3.25,3.63,15.87,15.87,0,0,1,2,4.39A5.2,5.2,0,0,1,76,46.56a5.34,5.34,0,0,1-2,2.6L64.59,56.9a16.09,16.09,0,0,1,6-.06,17,17,0,0,1,5.59,2,9.34,9.34,0,0,1,2.52,2.2A10.39,10.39,0,0,1,80.29,64a17.24,17.24,0,0,1,.47,8.9,15.41,15.41,0,0,1-1.46,3.9,15.62,15.62,0,0,1-2.47,3.37,33.9,33.9,0,0,1-3.45,3,34.64,34.64,0,0,1-3.81,2.49,20.75,20.75,0,0,1-5.83,2,20.34,20.34,0,0,1-6.18.23,3.05,3.05,0,0,1-1.67-.76,3.09,3.09,0,0,1-1-1.52,6.15,6.15,0,0,1-.26-2A6.88,6.88,0,0,1,55,81.8a5.37,5.37,0,0,0,0-3.11,6,6,0,0,0,2,0,7.33,7.33,0,0,0,1.93-.55A20.75,20.75,0,0,0,67,71.84a2.3,2.3,0,0,0,.56-1.76,2.68,2.68,0,0,0-.79-1.7,5,5,0,0,0-2.11-1.11,4.27,4.27,0,0,0-2.35.06,45,45,0,0,0-6,2.16,44.23,44.23,0,0,0-5.6,3,9.51,9.51,0,0,1-2,1.06,10.37,10.37,0,0,1-2.11.58,4,4,0,0,1-1.61,0,3.92,3.92,0,0,1-1.44-.55,8.86,8.86,0,0,1-1.61-1.26,8.44,8.44,0,0,1-1.26-1.61,5,5,0,0,1-.61-2.06,4,4,0,0,1,.38-2.11,15,15,0,0,1,1.73-3,17.4,17.4,0,0,1,2.31-2.55L58.67,48.23a24.53,24.53,0,0,1-4.19,1.84,21,21,0,0,1-4.54,1A4.23,4.23,0,0,1,48.36,51a5.07,5.07,0,0,1-1.53-.59,5,5,0,0,1-1-.82,4.51,4.51,0,0,1-.73-1,6,6,0,0,1-.53-1.85,4.53,4.53,0,0,1,.17-1.9A6.93,6.93,0,0,0,45,42.42,7.09,7.09,0,0,0,44.37,40.14Z"/></g><g class="cls-1"><path class="cls-3" d="M44.37,40.14a10.27,10.27,0,0,0,2.44.2A9.28,9.28,0,0,0,49.3,40c1.44-.39,2.89-.83,4.33-1.31s2.85-1,4.22-1.62S60.67,36,62.1,35.51s2.86-.88,4.31-1.23a5.19,5.19,0,0,1,4.51,1,15.35,15.35,0,0,1,3.25,3.63,15.87,15.87,0,0,1,2,4.39A5.2,5.2,0,0,1,76,46.56a5.34,5.34,0,0,1-2,2.6L64.59,56.9a16.09,16.09,0,0,1,6-.06,17,17,0,0,1,5.59,2,9.34,9.34,0,0,1,2.52,2.2A10.39,10.39,0,0,1,80.29,64a17.24,17.24,0,0,1,.47,8.9,15.41,15.41,0,0,1-1.46,3.9,15.62,15.62,0,0,1-2.47,3.37,33.9,33.9,0,0,1-3.45,3,34.64,34.64,0,0,1-3.81,2.49,20.75,20.75,0,0,1-5.83,2,20.34,20.34,0,0,1-6.18.23,3.05,3.05,0,0,1-1.67-.76,3.09,3.09,0,0,1-1-1.52,6.15,6.15,0,0,1-.26-2A6.88,6.88,0,0,1,55,81.8a5.37,5.37,0,0,0,0-3.11,6,6,0,0,0,2,0,7.33,7.33,0,0,0,1.93-.55A20.75,20.75,0,0,0,67,71.84a2.3,2.3,0,0,0,.56-1.76,2.68,2.68,0,0,0-.79-1.7,5,5,0,0,0-2.11-1.11,4.27,4.27,0,0,0-2.35.06,45,45,0,0,0-6,2.16,44.23,44.23,0,0,0-5.6,3,9.51,9.51,0,0,1-2,1.06,10.37,10.37,0,0,1-2.11.58,4,4,0,0,1-1.61,0,3.92,3.92,0,0,1-1.44-.55,8.86,8.86,0,0,1-1.61-1.26,8.44,8.44,0,0,1-1.26-1.61,5,5,0,0,1-.61-2.06,4,4,0,0,1,.38-2.11,15,15,0,0,1,1.73-3,17.4,17.4,0,0,1,2.31-2.55L58.67,48.23a24.53,24.53,0,0,1-4.19,1.84,21,21,0,0,1-4.54,1A4.23,4.23,0,0,1,48.36,51a5.07,5.07,0,0,1-1.53-.59,5,5,0,0,1-1-.82,4.51,4.51,0,0,1-.73-1,6,6,0,0,1-.53-1.85,4.53,4.53,0,0,1,.17-1.9A6.93,6.93,0,0,0,45,42.42,7.09,7.09,0,0,0,44.37,40.14Z"/></g><ellipse class="cls-4" cx="61.3" cy="62.22" rx="57.3" ry="58.22"/></g></g></g></g></g></svg>