<svg xmlns="http://www.w3.org/2000/svg" viewBox="0 0 122.6 124.44"><defs><style>.cls-1{isolation:isolate;}.cls-2{fill:#231815;}.cls-3{fill:#fff;}.cls-4{fill:none;stroke:#fff;stroke-width:8px;}</style></defs><title>アセット 1</title><g id="レイヤー_2" data-name="レイヤー 2"><g id="レイヤー_1-2" data-name="レイヤー 1"><g id="レイヤー_2-2" data-name="レイヤー 2"><g id="レイヤー_2-2-2" data-name="レイヤー 2-2"><g id="レイヤー_1-2-2" data-name="レイヤー 1-2"><g class="cls-1"><path class="cls-2" d="M51.52,35.33a7.73,7.73,0,0,0,2.35.12,8.19,8.19,0,0,0,2.22-.53,9.85,9.85,0,0,1,2.64-.67,10.58,10.58,0,0,1,2.64,0,3.39,3.39,0,0,1,1.49.59,3,3,0,0,1,1,1.23,6.71,6.71,0,0,1,.73,2,7.48,7.48,0,0,1,.09,2.11L64.24,54a24.79,24.79,0,0,0,5.15-2.11,23.32,23.32,0,0,0,4.52-3.22,24.46,24.46,0,0,0,1.23,2.93,18.25,18.25,0,0,0,1.64,2.69,12.16,12.16,0,0,1,1.34,2.52,11.25,11.25,0,0,1,.71,2.81,2.75,2.75,0,0,1-.33,1.7,2.8,2.8,0,0,1-1.25,1.23,19.06,19.06,0,0,1-3,1.29,22,22,0,0,1-3.14.82,56.21,56.21,0,0,0-8.9,2.84,58.28,58.28,0,0,0-8.33,4.25,1.86,1.86,0,0,0-1,1.76,2,2,0,0,0,1,1.76,15.06,15.06,0,0,0,7.8,1.93c1.48,0,3-.13,4.48-.26s3-.31,4.48-.5a9.09,9.09,0,0,1,2.43-.15,14.92,14.92,0,0,1,2.38.38,8,8,0,0,1,2,.85,6.82,6.82,0,0,1,1.61,1.38A7.17,7.17,0,0,1,80,80.25a7.27,7.27,0,0,1,.53,1.55,4.37,4.37,0,0,1,0,1.61A4.63,4.63,0,0,1,80,84.9a7,7,0,0,1-2.14,2.23A7.58,7.58,0,0,1,75,88.3c-2.42.35-4.84.61-7.27.76s-4.86.24-7.32.24a29.58,29.58,0,0,1-5.51-.65A27,27,0,0,1,49.59,87a15.19,15.19,0,0,1-4.22-2.7,15.88,15.88,0,0,1-3.16-3.93,12.4,12.4,0,0,1-.65-10.66,23.59,23.59,0,0,1,4.89-7.29,22.63,22.63,0,0,1,7.24-5,11.88,11.88,0,0,1-.88-2.6A13.76,13.76,0,0,1,52.52,52l.23-10.78a12.18,12.18,0,0,0-.26-3A14.41,14.41,0,0,0,51.52,35.33Z"/></g><g class="cls-1"><path class="cls-3" d="M51.52,35.33a7.73,7.73,0,0,0,2.35.12,8.19,8.19,0,0,0,2.22-.53,9.85,9.85,0,0,1,2.64-.67,10.58,10.58,0,0,1,2.64,0,3.39,3.39,0,0,1,1.49.59,3,3,0,0,1,1,1.23,6.71,6.71,0,0,1,.73,2,7.48,7.48,0,0,1,.09,2.11L64.24,54a24.79,24.79,0,0,0,5.15-2.11,23.32,23.32,0,0,0,4.52-3.22,24.46,24.46,0,0,0,1.23,2.93,18.25,18.25,0,0,0,1.64,2.69,12.16,12.16,0,0,1,1.34,2.52,11.25,11.25,0,0,1,.71,2.81,2.75,2.75,0,0,1-.33,1.7,2.8,2.8,0,0,1-1.25,1.23,19.06,19.06,0,0,1-3,1.29,22,22,0,0,1-3.14.82,56.21,56.21,0,0,0-8.9,2.84,58.28,58.28,0,0,0-8.33,4.25,1.86,1.86,0,0,0-1,1.76,2,2,0,0,0,1,1.76,15.06,15.06,0,0,0,7.8,1.93c1.48,0,3-.13,4.48-.26s3-.31,4.48-.5a9.09,9.09,0,0,1,2.43-.15,14.92,14.92,0,0,1,2.38.38,8,8,0,0,1,2,.85,6.82,6.82,0,0,1,1.61,1.38A7.17,7.17,0,0,1,80,80.25a7.27,7.27,0,0,1,.53,1.55,4.37,4.37,0,0,1,0,1.61A4.63,4.63,0,0,1,80,84.9a7,7,0,0,1-2.14,2.23A7.58,7.58,0,0,1,75,88.3c-2.42.35-4.84.61-7.27.76s-4.86.24-7.32.24a29.58,29.58,0,0,1-5.51-.65A27,27,0,0,1,49.59,87a15.19,15.19,0,0,1-4.22-2.7,15.88,15.88,0,0,1-3.16-3.93,12.4,12.4,0,0,1-.65-10.66,23.59,23.59,0,0,1,4.89-7.29,22.63,22.63,0,0,1,7.24-5,11.88,11.88,0,0,1-.88-2.6A13.76,13.76,0,0,1,52.52,52l.23-10.78a12.18,12.18,0,0,0-.26-3A14.41,14.41,0,0,0,51.52,35.33Z"/></g><ellipse class="cls-4" cx="61.3" cy="62.22" rx="57.3" ry="58.22"/></g></g></g></g></g></svg>